<?xml version="1.0" encoding="utf-8"?>
<!-- Generator: Adobe Illustrator 23.1.0, SVG Export Plug-In . SVG Version: 6.00 Build 0)  -->
<svg version="1.1" id="Layer_1" xmlns="http://www.w3.org/2000/svg" xmlns:xlink="http://www.w3.org/1999/xlink" x="0px" y="0px"
	 viewBox="0 0 568.5 229" style="enable-background:new 0 0 568.5 229;" xml:space="preserve">
<style type="text/css">
	.st0{fill:#CCB906;}
	.st1{fill:#141414;}
	.st2{fill:#FFFFFF;}
	.st3{fill:#F9E606;}
	.st4{opacity:0.72;fill:#141414;}
	.st5{opacity:0.57;fill:#141414;}
	.st6{opacity:0.15;}
	.st7{fill:#E8F0F9;}
	.st8{fill:#BCD9EA;}
	.st9{fill:#FF4E00;}
	.st10{opacity:0.35;fill:#141414;enable-background:new    ;}
</style>
<title>Asset 210</title>
<path class="st0" d="M471.1,158h7.8c7.9,0,14.2,6.4,14.2,14.2l0,0c0,4.8-2.4,9.4-6.5,12l-16,10.3L471.1,158z"/>
<path class="st1" d="M470,196.4l0.5-39.4h8.8c8.4,0,15.2,6.9,15.2,15.3c0,5.1-2.6,9.9-6.9,12.7L470,196.4z M472.6,159l-0.5,33.6
	l14.4-9.3c6.1-4,7.9-12.2,3.9-18.3c-2.4-3.8-6.6-6.1-11.1-6.1H472.6z"/>
<path class="st2" d="M472.4,163h5.2c5.2,0,9.5,4.2,9.5,9.5l0,0c0,3.2-1.6,6.2-4.4,8l-10.6,6.9L472.4,163z"/>
<path class="st1" d="M471,189.2l0.4-27.2h6.2c5.8,0,10.5,4.7,10.5,10.5c0,3.6-1.8,6.9-4.8,8.8L471,189.2z M473.4,164l-0.3,21.5
	l9.1-5.9c3.9-2.5,5.1-7.8,2.5-11.7c-1.6-2.4-4.3-3.9-7.1-3.9L473.4,164z"/>
<path class="st3" d="M465.1,218c18.5-14.5,13.5-71,13.5-71h-63.5l-23,45l5,26.7L465.1,218"/>
<path class="st0" d="M472.9,146.5h-2.4c0,0,5,56.5-13.5,71l-61,0.6v0.1l68-0.7c15.3-12,14.5-52.4,13.8-66.3
	C477.7,148.6,475.6,146.5,472.9,146.5z"/>
<path class="st1" d="M465.7,217.8l-1.2-1.6c14.9-11.6,14.1-52.5,13.5-64.7c-0.1-2.5-2.2-4.5-4.7-4.5h-58.1v-2h58.1
	c3.6,0,6.5,2.8,6.7,6.4C480.7,167.4,480.9,205.9,465.7,217.8z"/>
<polygon class="st1" points="167.1,213 69.7,213 40.4,183.7 41.8,182.3 70.5,211 167.1,211 "/>
<rect x="1" y="217" class="st4" width="566.5" height="11"/>
<rect x="1.8" y="217.6" class="st1" width="566.5" height="1.9"/>
<polygon class="st5" points="562.4,216.1 562.4,225.1 4.6,225.1 4.6,216.1 0.3,216.1 0.3,227.1 566.7,227.1 566.7,216.1 "/>
<path class="st1" d="M568.5,229H0v-13h568.5V229z M2,227h564.5v-9H2V227z"/>
<g class="st6">
	<path class="st1" d="M62.1,58h-62V39h62V58z M2.1,56h58V41h-58V56z"/>
	<path class="st1" d="M122.1,58h-62V39h62V58z M62.1,56h58V41h-58V56z"/>
	<path class="st1" d="M91.1,41h-62V22h62V41z M31.1,39h58V24h-58V39z"/>
</g>
<g class="st6">
	<path class="st1" d="M438.1,60h-62V41h62V60z M378.1,58h58V43h-58V58z"/>
	<path class="st1" d="M498.1,60h-62V41h62V60z M438.1,58h58V43h-58V58z"/>
	<path class="st1" d="M467.1,43h-62V24h62V43z M407.1,41h58V26h-58V41z"/>
</g>
<g class="st6">
	<path class="st1" d="M509.1,119h-62v-19h62V119z M449.1,117h58v-15h-58V117z"/>
	<path class="st1" d="M554.1,137h-62v-19h62V137z M494.1,135h58v-15h-58V135z"/>
</g>
<g class="st6">
	<path class="st1" d="M118.1,156h-62v-19h62V156z M58.1,154h58v-15h-58V154z"/>
	<path class="st1" d="M163.1,174h-62v-19h62V174z M103.1,172h58v-15h-58V172z"/>
</g>
<circle class="st7" cx="27.5" cy="120.4" r="25.4"/>
<path class="st8" d="M27.5,95c-3.3,0-6.5,0.6-9.5,1.8c13.6-3.5,27.5,4.8,30.9,18.4C52,127.5,45.7,140.2,34,145
	c13.6-3.7,21.6-17.6,17.9-31.2C48.9,102.8,38.9,95.1,27.5,95L27.5,95z"/>
<path class="st2" d="M9.1,119.9c0-12.9,9.6-23.7,22.4-25.3C17.6,93,4.9,103,3.3,117s8.3,26.6,22.3,28.2c2,0.2,4,0.2,6,0
	C18.7,143.7,9.1,132.8,9.1,119.9z"/>
<path class="st1" d="M27.5,146.9c-14.6,0-26.4-11.9-26.4-26.5S13,94,27.6,94C42.2,94,54,105.9,54,120.4
	C54,135,42.1,146.9,27.5,146.9z M27.5,96C14,96,3.1,107,3.1,120.5c0,13.5,11,24.4,24.5,24.4c13.5,0,24.4-10.9,24.4-24.4
	C52,106.9,41,96,27.5,96z"/>
<path class="st1" d="M18.3,106.7h18.5c1.9,0,3.5,1.5,3.5,3.5v9.3c0,7-5.7,12.7-12.7,12.7l0,0c-7,0-12.7-5.7-12.7-12.7l0,0v-9.3
	C14.8,108.2,16.3,106.7,18.3,106.7C18.3,106.7,18.3,106.7,18.3,106.7z"/>
<rect x="26.5" y="126.8" class="st1" width="2" height="42.4"/>
<rect x="31.6" y="167.9" class="st3" width="3.5" height="0.5"/>
<rect x="32.5" y="168.7" transform="matrix(0.4355 -0.9002 0.9002 0.4355 -134.9848 125.7016)" class="st3" width="0.5" height="3.5"/>
<rect x="30.1" y="171.1" transform="matrix(0.9445 -0.3285 0.3285 0.9445 -55.0959 19.5774)" class="st3" width="0.5" height="3.5"/>
<rect x="34.8" y="184.3" class="st3" width="3.5" height="0.5"/>
<rect x="36.9" y="180.4" transform="matrix(0.4355 -0.9002 0.9002 0.4355 -142.9986 136.2699)" class="st3" width="0.5" height="3.5"/>
<rect x="39.3" y="178" transform="matrix(0.9445 -0.3285 0.3285 0.9445 -56.8732 22.9662)" class="st3" width="0.5" height="3.5"/>
<path class="st7" d="M145.9,1h268.9c6.3,0,11.4,5.1,11.4,11.4V203l0,0H134.5l0,0V12.4C134.5,6.1,139.6,1,145.9,1
	C145.9,1,145.9,1,145.9,1z"/>
<rect x="143.1" y="191.8" class="st8" width="274" height="2.8"/>
<path class="st2" d="M414.8,1H145.9c-6.3,0-11.4,5.1-11.4,11.4v6c0-6.3,5.1-11.4,11.4-11.4h268.9c6.3,0,11.4,5.1,11.4,11.4v-6
	C426.2,6.1,421.1,1,414.8,1z"/>
<path class="st1" d="M427,204H133.4V12.4c0-6.8,5.5-12.4,12.4-12.4h268.9c6.8,0,12.3,5.6,12.3,12.4V204z M135.3,202H425V12.4
	C425,6.7,420.4,2,414.7,2H145.7c-5.7,0-10.4,4.6-10.4,10.4L135.3,202z"/>
<rect x="143.4" y="19" class="st2" width="273" height="173"/>
<rect x="144.4" y="19" class="st1" width="272" height="5"/>
<path class="st1" d="M417,193H143.4V18H417V193z M145.3,191H415V20H145.4L145.3,191z"/>
<path class="st7" d="M94.1,203h371.5l0,0v5.7c0,5.2-4.2,9.3-9.3,9.3H105.8c-6.5,0-11.7-5.3-11.7-11.7l0,0V203L94.1,203z"/>
<rect x="95.1" y="203" class="st8" width="371.5" height="6"/>
<path class="st1" d="M454.3,219H106.1c-7,0-12.6-5.7-12.6-12.6V202h373.5v4.4C466.9,213.3,461.3,219,454.3,219z M95.4,204v2.4
	c0,5.9,4.8,10.6,10.6,10.6h348.2c5.9,0,10.6-4.8,10.6-10.6V204H95.4z"/>
<circle class="st9" cx="277.6" cy="10.3" r="1.6"/>
<path class="st1" d="M277.6,12.4c-1.2,0-2.1-1-2.1-2.1s1-2.1,2.1-2.1c1.2,0,2.1,1,2.1,2.1C279.7,11.4,278.8,12.4,277.6,12.4
	L277.6,12.4z M277.6,9.1c-0.6,0-1.1,0.5-1.1,1.1s0.5,1.1,1.1,1.1c0.6,0,1.1-0.5,1.1-1.1C278.7,9.6,278.2,9.1,277.6,9.1
	C277.6,9.1,277.6,9.1,277.6,9.1z"/>
<path class="st1" d="M300.9,210.3h-40.6c-5.1,0-10.2-1.4-14.5-4.2l-3-1.9l1.1-1.7l3,1.9c4,2.5,8.7,3.9,13.4,3.9h40.6
	c5.8,0,11.4-2,15.8-5.7l1.3,1.5C313.2,208.2,307.1,210.4,300.9,210.3z"/>
<g>
	<path class="st3" d="M209.2,114.9h-1.7v5H204v-14.2h5.1c2.9,0,4.6,1.8,4.6,4.6C213.7,113,211.9,114.9,209.2,114.9z M207.5,108.7
		v3.3h1.1c1,0,1.5-0.7,1.5-1.7c0-1-0.5-1.6-1.5-1.6H207.5z"/>
	<path class="st3" d="M218.7,113.1c0.9,0,1.7,0.2,2.1,0.4v-0.4c0-0.7-0.5-1.2-1.6-1.2c-0.9,0-1.9,0.3-2.7,0.7l-1.3-2.3
		c1.1-0.8,2.6-1.3,4.4-1.3c3.7,0,4.6,1.9,4.6,4.3v6.6h-3l-0.2-0.6c-0.5,0.5-1.3,0.9-2.4,0.9c-2.1,0-4-1.3-4-3.6
		C214.5,114.5,216.2,113.1,218.7,113.1z M219.4,117.6c0.8,0,1.4-0.4,1.4-1.1c0-0.7-0.6-1.1-1.4-1.1c-0.8,0-1.4,0.4-1.4,1.1
		C217.9,117.2,218.6,117.6,219.4,117.6z"/>
	<path class="st3" d="M233.3,119.1c-0.2,0.3-1.2,1.1-2.8,1.1c-3.1,0-5-2.3-5-5.6c0-3.3,2.2-5.6,5.2-5.6c1.6,0,2.6,0.8,2.9,1.1v-0.8
		h3.2v9.4c0,3.9-2.7,5.2-5.9,5.2c-1.5,0-3-0.4-3.9-0.9l1-2.6c0.3,0.1,1.5,0.7,3,0.7c1.3,0,2.5-0.3,2.5-1.6V119.1z M231.1,112
		c-1.4,0-2.3,1-2.3,2.6c0,1.6,0.9,2.6,2.3,2.6c1.3,0,2.3-1,2.3-2.6C233.4,113.1,232.6,112,231.1,112z"/>
	<path class="st3" d="M241.5,115.5c0.1,1,1,1.8,2.3,1.8c1.3,0,2-0.8,2.2-1.1l2.2,1.7c-0.3,0.6-1.8,2.4-4.5,2.4
		c-3.5,0-5.7-2.4-5.7-5.6c0-3.1,2.1-5.6,5.3-5.6c3.4,0,5.3,2.2,5.3,5.8c0,0.2,0,0.4,0,0.7H241.5z M241.6,113.3h3.5
		c0-0.9-0.7-1.6-1.7-1.6C242.3,111.7,241.7,112.5,241.6,113.3z"/>
	<path class="st3" d="M257.6,111.2v8.7h-3.4v-14.2h3.5l5.2,8.8v-8.8h3.4v14.2h-3.5L257.6,111.2z"/>
	<path class="st3" d="M273.8,109c3.4,0,5.9,2.4,5.9,5.6c0,3.2-2.5,5.6-5.9,5.6c-3.4,0-5.8-2.4-5.8-5.6
		C268,111.4,270.5,109,273.8,109z M273.8,117.2c1.4,0,2.5-1.1,2.5-2.6c0-1.6-1.1-2.6-2.5-2.6c-1.4,0-2.4,1.1-2.4,2.6
		C271.4,116.1,272.4,117.2,273.8,117.2z"/>
	<path class="st3" d="M284.7,109.2h1.8v2.7h-1.8v3.9c0,0.9,0.6,1.2,1.3,1.2c0.2,0,0.3,0,0.6,0v2.9c0,0-0.4,0.1-1.3,0.1
		c-2.5,0-4-1.2-4-4.3V112h-1v-2.7h1V107h3.4V109.2z"/>
	<path class="st3" d="M296,114.5v5.4h-3.5v-14.2h7.5v3.1H296v2.6h3.5v3.1H296z"/>
	<path class="st3" d="M307.1,109c3.4,0,5.9,2.4,5.9,5.6c0,3.2-2.5,5.6-5.9,5.6c-3.4,0-5.8-2.4-5.8-5.6
		C301.3,111.4,303.8,109,307.1,109z M307.1,117.2c1.4,0,2.5-1.1,2.5-2.6c0-1.6-1.1-2.6-2.5-2.6c-1.4,0-2.4,1.1-2.4,2.6
		C304.7,116.1,305.7,117.2,307.1,117.2z"/>
	<path class="st3" d="M317.6,115.6c0,1,0.6,1.5,1.4,1.5c0.9,0,1.5-0.7,1.5-1.5v-6.4h3.4v10.7h-3.3v-1.1c-0.4,0.6-1.3,1.4-2.7,1.4
		c-3.3,0-3.7-2.8-3.7-5v-5.9h3.4V115.6z"/>
	<path class="st3" d="M332.1,113.5c0-1-0.6-1.5-1.4-1.5c-0.9,0-1.5,0.7-1.5,1.5v6.4h-3.4v-10.7h3.3v1.1c0.4-0.6,1.3-1.4,2.7-1.4
		c3.3,0,3.7,2.8,3.7,5v5.9h-3.4V113.5z"/>
	<path class="st3" d="M344.9,119.1c-0.3,0.3-1.3,1.1-2.9,1.1c-3.1,0-5.2-2.3-5.2-5.6c0-3.3,2-5.6,5-5.6c1.6,0,2.6,0.8,2.8,1.1v-4.8
		h3.4v14.7h-3.2V119.1z M342.5,112c-1.4,0-2.3,1.1-2.3,2.6c0,1.6,0.9,2.6,2.3,2.6c1.5,0,2.3-1.2,2.3-2.6
		C344.8,112.9,343.8,112,342.5,112z"/>
	<path class="st3" d="M349.7,118.2c0-1.1,0.9-2,2-2c1.1,0,2,0.9,2,2c0,1.1-0.9,2-2,2C350.6,120.2,349.7,119.3,349.7,118.2z
		 M355.4,118.2c0-1.1,0.9-2,2-2c1.1,0,2,0.9,2,2c0,1.1-0.9,2-2,2C356.3,120.2,355.4,119.3,355.4,118.2z M361,118.2c0-1.1,0.9-2,2-2
		c1.1,0,2,0.9,2,2c0,1.1-0.9,2-2,2C361.9,120.2,361,119.3,361,118.2z"/>
</g>
<path class="st7" d="M104.1,37.5c0.8,0,1.5-0.7,1.5-1.5s-0.7-1.5-1.5-1.5s-1.5,0.7-1.5,1.5S103.2,37.5,104.1,37.5z"/>
<path class="st10" d="M446.7,137c-2.4-1.7-4.5-3.9-6.2-6.3c-0.8-1.3-1.3-2.8-1.5-4.3c-0.2-1.6,0.1-3.2,0.7-4.7
	c0.4-0.7,0.9-1.4,1.5-2c0.6-0.5,1.2-1,1.8-1.4c1.2-0.8,2.4-1.7,2.6-2.6s-0.2-2.1-1-3.2c-0.9-1.2-1.7-2.5-2.4-3.8
	c-2.8-5.5-3.5-11.7-2-17.7c0.7-2.9,2-5.7,3.8-8.1c1.8-2.4,4.2-4.3,6.9-5.4c-1.2,0.7-2.4,1.6-3.4,2.7c-1,1-1.9,2.1-2.7,3.4
	c-1.5,2.4-2.6,5.1-3.1,7.9c-1.1,5.6-0.3,11.4,2.3,16.4c0.7,1.3,1.4,2.5,2.3,3.6c0.5,0.7,0.9,1.4,1.2,2.2c0.3,0.9,0.3,1.9,0,2.8
	c-0.3,0.8-0.9,1.6-1.6,2.1c-0.6,0.5-1.2,0.9-1.9,1.3c-1.2,0.6-2.2,1.6-2.9,2.7c-0.6,1.2-0.9,2.5-0.8,3.8c0.1,1.4,0.4,2.8,1,4
	C442.6,132.8,444.8,134.9,446.7,137z"/>
<path class="st10" d="M454.7,130.8c2-2.3,2.3-5.3,1.9-8s-1.6-5.4-2.7-8.2c-0.5-1.4-1-2.9-1.3-4.4c-0.3-1.5-0.4-3.1-0.3-4.6
	c0.2-3.1,1.1-6,2.8-8.6c-0.9,2.8-1.3,5.7-1.3,8.6c0.1,2.9,0.7,5.7,1.8,8.3c1,2.7,2.2,5.6,2.3,8.8c0.1,1.6-0.1,3.1-0.7,4.6
	C457,128.7,456,130,454.7,130.8z"/>
<path class="st10" d="M463.7,107.8c2-2.3,2.3-5.3,1.9-8s-1.6-5.4-2.7-8.2c-0.5-1.4-1-2.9-1.3-4.4c-0.3-1.5-0.4-3.1-0.3-4.6
	c0.2-3.1,1.1-6,2.8-8.6c-0.9,2.8-1.3,5.7-1.3,8.6c0.1,2.9,0.7,5.7,1.8,8.3c1,2.7,2.2,5.6,2.3,8.8c0.1,1.6-0.1,3.1-0.7,4.6
	C466,105.7,465,107,463.7,107.8z"/>
</svg>
