<svg xmlns="http://www.w3.org/2000/svg" viewBox="0 0 119.68 118.33"><g id="Layer_2" data-name="Layer 2"><g id="Layer_1-2" data-name="Layer 1"><g opacity="0.33"><path d="M42.77,9.19l1.9,5.86L43,15.61,40.14,7l1.77-.57,5.62,4.71L45.61,5.18l1.72-.56,2.8,8.66-1.73.56Z" transform="translate(-1.4 -2.86)"/><path d="M51.72,8.22a4.73,4.73,0,0,1,9.42-1,4.73,4.73,0,0,1-9.42,1Zm1.9-.2a2.83,2.83,0,1,0,5.62-.56A2.83,2.83,0,1,0,53.62,8Z" transform="translate(-1.4 -2.86)"/><path d="M64.07,8.51l.6-5.65,1.82.19-.6,5.65a1.83,1.83,0,1,0,3.64.39l.61-5.65,1.82.2-.6,5.64a3.67,3.67,0,0,1-7.29-.77Z" transform="translate(-1.4 -2.86)"/><path d="M80.7,7.79,79.05,8a1.42,1.42,0,0,0-1-1.31.87.87,0,0,0-1.19.56c-.42,1.44,3.44,2.33,2.65,5a2.74,2.74,0,0,1-3.69,1.82,3.06,3.06,0,0,1-2.31-2.87L75.2,11a1.7,1.7,0,0,0,1.19,1.55.93.93,0,0,0,1.3-.6c.43-1.5-3.41-2.34-2.6-5.14a2.59,2.59,0,0,1,3.47-1.69A2.86,2.86,0,0,1,80.7,7.79Z" transform="translate(-1.4 -2.86)"/><path d="M89.48,9.6,91.84,11c1.71,1,2,2.61,1.28,3.89a2.67,2.67,0,0,1-2.41,1.37l-.18,4.54-1.74-1,.29-4-.84-.5-1.82,3.07-1.57-.93Zm.28,4.81a1.19,1.19,0,0,0,1.7-.42,1.17,1.17,0,0,0-.55-1.7l-.66-.39L89,14Z" transform="translate(-1.4 -2.86)"/><path d="M97.87,15l3.61,3-1,1.27-2.2-1.81L96.94,19l1.88,1.56-1,1.25L95.9,20.25l-1.37,1.67,2.28,1.89-1,1.26L92.07,22Z" transform="translate(-1.4 -2.86)"/><path d="M99.21,28.62l4.7-8.48,1.32,1.53L101.49,28l6.77-2.77,1.32,1.53-9.07,3.41Z" transform="translate(-1.4 -2.86)"/><path d="M111.33,29.47l1,1.54-7.67,4.9-1-1.54Z" transform="translate(-1.4 -2.86)"/><path d="M114.26,34.35l2,4.22-1.48.71-1.24-2.56-1.83.88,1.06,2.2-1.46.7-1.06-2.2-1.94.94,1.28,2.67-1.47.71-2.08-4.32Z" transform="translate(-1.4 -2.86)"/><path d="M115.51,44.87l-5.93,1.67-.49-1.74,8.77-2.47.5,1.8-4.93,5.42,6-1.68.49,1.74-8.77,2.46-.49-1.75Z" transform="translate(-1.4 -2.86)"/><path d="M120.62,53.94l.19,2.41c.24,3-1.32,4.94-4.15,5.16S112,60,111.75,57.06l-.19-2.41ZM113.33,57a3,3,0,0,0,5.89-.46l0-.65-5.89.46Z" transform="translate(-1.4 -2.86)"/><path d="M121.08,65l-.26,2.73c-.2,2-1.51,3-3,2.8a2.64,2.64,0,0,1-2.26-1.6l-4.18,1.75.2-2,3.72-1.41.09-1-3.55-.35.18-1.82Zm-4.23,2.29a1.17,1.17,0,0,0,1.09,1.36c.73.07,1.23-.39,1.31-1.22l.08-.76-2.4-.24Z" transform="translate(-1.4 -2.86)"/><path d="M115.56,73.36a4.73,4.73,0,1,1-5.89,3.16A4.59,4.59,0,0,1,115.56,73.36ZM115,75.19a2.83,2.83,0,1,0,2.06,3.57A2.82,2.82,0,0,0,115,75.19Z" transform="translate(-1.4 -2.86)"/><path d="M112,87.57l-5.38-3,.88-1.58,7.95,4.43-.9,1.62-7.33.38,5.44,3L111.82,94l-8-4.43.89-1.59Z" transform="translate(-1.4 -2.86)"/><path d="M104.5,100.49l.44-1.61a1.42,1.42,0,0,0,1.6-.4.89.89,0,0,0-.05-1.32c-1.16-1-3.5,2.24-5.68.46a2.75,2.75,0,0,1-.22-4.11,3.07,3.07,0,0,1,3.54-1l-.39,1.68a1.7,1.7,0,0,0-1.89.48.93.93,0,0,0,0,1.43c1.2,1,3.49-2.22,5.74-.37a2.57,2.57,0,0,1,.19,3.85A2.86,2.86,0,0,1,104.5,100.49Z" transform="translate(-1.4 -2.86)"/><path d="M92,102l8,5.42-1.63,1.18-6-4.27,2.17,7L93,112.52l-2.61-9.34Z" transform="translate(-1.4 -2.86)"/><path d="M90,114.13l-4.21,2.06L85,114.7l2.56-1.25-.89-1.82-2.2,1.07-.71-1.45L86,110.17l-1-1.94-2.66,1.31-.72-1.48L86,106Z" transform="translate(-1.4 -2.86)"/><path d="M82.07,117.68l-2.62.8c-1.9.58-3.3-.26-3.74-1.69a2.66,2.66,0,0,1,.62-2.7l-3.23-3.18,1.94-.6,2.73,2.89.93-.28-1-3.41,1.76-.53Zm-3.74-3a1.2,1.2,0,1,0,.79,2.27l.74-.22-.71-2.3Z" transform="translate(-1.4 -2.86)"/><path d="M66.82,119.16l1.42-.89a1.43,1.43,0,0,0,1.45.81.88.88,0,0,0,.86-1c-.2-1.49-4.09-.75-4.46-3.55a2.75,2.75,0,0,1,2.65-3.14A3.06,3.06,0,0,1,72,113.08l-1.44,1a1.69,1.69,0,0,0-1.71-.94c-.67.09-1,.49-.94,1.07.2,1.55,4.06.77,4.45,3.66a2.58,2.58,0,0,1-2.5,2.94A2.87,2.87,0,0,1,66.82,119.16Z" transform="translate(-1.4 -2.86)"/><path d="M56.63,111.74l2.19,9.45-2-.26-1.44-7.17-3.17,6.59-2-.25,4.45-8.61Z" transform="translate(-1.4 -2.86)"/><path d="M48.54,115.1a4.73,4.73,0,1,1-2.92-6A4.58,4.58,0,0,1,48.54,115.1Zm-1.8-.62a2.83,2.83,0,1,0-3.65,1.91A2.84,2.84,0,0,0,46.74,114.48Z" transform="translate(-1.4 -2.86)"/><path d="M37.47,109.63l-2.95,4.86L33,113.54l2.94-4.86a1.84,1.84,0,1,0-3.14-1.9l-2.94,4.86-1.57-1,2.94-4.86a3.36,3.36,0,0,1,5-1.17A3.36,3.36,0,0,1,37.47,109.63Z" transform="translate(-1.4 -2.86)"/><path d="M22.09,103.21l1.59.48a1.43,1.43,0,0,0,.35,1.62.89.89,0,0,0,1.32,0c1-1.14-2.12-3.57-.27-5.69a2.76,2.76,0,0,1,4.12-.08,3.06,3.06,0,0,1,.87,3.57l-1.66-.45a1.71,1.71,0,0,0-.41-1.91.94.94,0,0,0-1.43,0c-1,1.18,2.09,3.57.17,5.76a2.58,2.58,0,0,1-3.85.06A2.87,2.87,0,0,1,22.09,103.21Z" transform="translate(-1.4 -2.86)"/><path d="M14.94,97.91l-1.65-2.38c-1-1.49-.92-3,.28-3.83a2.24,2.24,0,0,1,2.24-.21,2.19,2.19,0,0,1,.91-2.32c1.45-1,3-.33,4,1l1.73,2.51Zm1.39-4.46a1.06,1.06,0,0,0-1.52-.32,1,1,0,0,0-.19,1.53l.58.84,1.72-1.19Zm3.12-2.25a1.21,1.21,0,0,0-1.74-.41,1.18,1.18,0,0,0-.21,1.75l.64.92,1.95-1.34Z" transform="translate(-1.4 -2.86)"/><path d="M9.78,89.76l-.84-1.63L17,84l.84,1.63Z" transform="translate(-1.4 -2.86)"/><path d="M7.32,84.64,5.69,80.25l1.55-.58,1,2.68,1.9-.71-.84-2.29,1.52-.56.85,2.29,2-.75-1-2.78L14.19,77l1.67,4.5Z" transform="translate(-1.4 -2.86)"/><path d="M7.07,74l6.07-1.1.32,1.78-9,1.62L4.17,74.5l5.42-4.93-6.11,1.1L3.16,68.9l9-1.62.33,1.79Z" transform="translate(-1.4 -2.86)"/><path d="M4.55,63.24l0,2.14-1.66,0-.11-6.09,1.65,0,0,2.12L12,61.27l0,1.84Z" transform="translate(-1.4 -2.86)"/><path d="M2.45,50.94l.8.8L3,53.23,1.4,51.69l.34-1.82,2-.88-.27,1.49Zm5,5.78a4.73,4.73,0,0,1,1.72-9.31,4.73,4.73,0,0,1-1.72,9.31Zm.35-1.88a2.83,2.83,0,1,0,1-5.55,2.83,2.83,0,1,0-1,5.55Z" transform="translate(-1.4 -2.86)"/><path d="M8.06,42.11l-.77,2-1.54-.6L8,37.83l1.54.6-.77,2,7,2.69L15,44.8Z" transform="translate(-1.4 -2.86)"/><path d="M22.12,25a2.41,2.41,0,1,1,3.41,0A2.37,2.37,0,0,1,22.12,25Z" transform="translate(-1.4 -2.86)"/></g></g></g></svg>