<svg xmlns="http://www.w3.org/2000/svg" xmlns:xlink="http://www.w3.org/1999/xlink" viewBox="0 0 385.74 385.12"><defs><clipPath id="clip-path"><polygon points="257.83 287.81 277.06 142.28 356.58 142.28 337.35 287.81 257.83 287.81" style="fill:none"/></clipPath><clipPath id="clip-path-2"><polygon points="246.33 287.25 265.81 139.83 348.08 139.83 328.6 287.25 246.33 287.25" style="fill:none"/></clipPath><clipPath id="clip-path-3"><polygon points="228.46 385.12 243.72 269.68 324.35 269.68 309.09 385.12 228.46 385.12" style="fill:none"/></clipPath><clipPath id="clip-path-4"><polygon points="225.46 385.12 240.72 269.68 321.35 269.68 306.1 385.12 225.46 385.12" style="fill:none"/></clipPath><clipPath id="clip-path-5"><polygon points="268.52 244.31 272.64 213.15 319.02 213.15 314.9 244.31 268.52 244.31" style="fill:none"/></clipPath><clipPath id="clip-path-6"><polygon points="260.87 198.27 265.8 160.97 342.29 160.97 337.36 198.27 260.87 198.27" style="fill:none"/></clipPath></defs><title>Code Illustration</title><g id="Layer_2" data-name="Layer 2"><g id="Code_Illustration" data-name="Code Illustration"><g id="Blob" style="opacity:0.2"><path d="M357,31.16c31.4,35.7,24,105.7,17.3,169s-12.8,119.8-44.1,149.3-87.9,32-138.7,26.2-95.8-19.8-130.2-49.3-58-74.5-56.1-117.6,29.3-84.4,63.7-120.1,75.6-65.7,131.2-80.1S325.68-4.44,357,31.16Z" style="fill:#ffe91f"/></g><g id="Window"><rect x="26.66" y="82.36" width="200" height="150" style="fill:#fff;stroke:#000;stroke-linecap:round;stroke-linejoin:round;stroke-width:4px"/><line x1="26.66" y1="107.96" x2="226.66" y2="107.96" style="fill:#fff;stroke:#000;stroke-linecap:round;stroke-linejoin:round;stroke-width:4px"/></g><g id="Window-2" data-name="Window"><polyline points="226.51 191.61 169.74 191.61 169.74 82.61 369.74 82.61 226.08 173.11" style="stroke:#000;stroke-linecap:round;stroke-linejoin:round;stroke-width:4px"/></g><g id="Window-3" data-name="Window"><rect x="183.74" y="26.61" width="200" height="150" style="fill:#fff;stroke:#000;stroke-linecap:round;stroke-linejoin:round;stroke-width:4px"/><line x1="183.74" y1="52.21" x2="383.74" y2="52.21" style="fill:#fff;stroke:#000;stroke-linecap:round;stroke-linejoin:round;stroke-width:4px"/></g><g id="Controls"><circle cx="59.14" cy="94.05" r="5.35" style="fill:#f9e606;stroke:#000;stroke-linecap:round;stroke-linejoin:round;stroke-width:2px"/><circle cx="43.36" cy="94.05" r="5.35" style="fill:#f75108;stroke:#000;stroke-linecap:round;stroke-linejoin:round;stroke-width:2px"/><circle cx="74.91" cy="94.05" r="5.35" style="fill:#0bf44d;stroke:#000;stroke-linecap:round;stroke-linejoin:round;stroke-width:2px"/></g><g id="Controls-2" data-name="Controls"><circle cx="216.23" cy="39.59" r="5.35" style="fill:#f9e606;stroke:#000;stroke-linecap:round;stroke-linejoin:round;stroke-width:2px"/><circle cx="200.46" cy="39.59" r="5.35" style="fill:#f75108;stroke:#000;stroke-linecap:round;stroke-linejoin:round;stroke-width:2px"/><circle cx="232.01" cy="39.59" r="5.35" style="fill:#0bf44d;stroke:#000;stroke-linecap:round;stroke-linejoin:round;stroke-width:2px"/></g><rect x="38.02" y="124.77" width="31.55" height="12.5" style="fill:#141414"/><rect x="38.02" y="194.77" width="31.55" height="12.5" style="fill:#141414"/><rect x="74.91" y="194.77" width="31.55" height="12.5" style="fill:#141414"/><rect x="38.02" y="148.77" width="31.55" height="12.5" style="fill:#141414"/><rect x="74.91" y="148.77" width="74.85" height="12.5" style="fill:#141414"/><rect x="199.93" y="69.86" width="74.85" height="12.5"/><rect x="37.49" y="172.77" width="74.85" height="12.5" style="fill:#141414"/><rect x="74.91" y="124.77" width="31.55" height="12.5" style="fill:#141414"/><rect x="118.21" y="172.77" width="31.55" height="12.5" style="fill:#141414"/><rect x="110.89" y="124.77" width="31.55" height="12.5" style="fill:#141414"/><g id="Magnifier"><polyline points="45.59 231.65 13.68 277.31 2.67 270.18 35.04 223.28" style="fill:#f9e606;stroke:#141414;stroke-linecap:round;stroke-linejoin:round;stroke-width:3px"/><polyline points="44.41 230.03 12.5 275.69 1.5 268.56 33.87 221.66" style="fill:#f9e606;stroke:#141414;stroke-linecap:round;stroke-linejoin:round;stroke-width:3px"/><circle cx="72.2" cy="193.67" r="44.57" style="fill:#141414"/><circle cx="67.41" cy="191.97" r="44.57" style="fill:#f9e606;stroke:#141414;stroke-miterlimit:10;stroke-width:3px"/></g><g id="Pic_Wireframe" data-name="Pic Wireframe"><rect x="292.35" y="66.88" width="72.85" height="72.85" style="fill:#eaeaea"/><polygon points="331.49 110.87 324.2 95.73 316.63 110.87 331.49 110.87" style="fill:#fff;stroke:#fff;stroke-linecap:round;stroke-linejoin:round;stroke-width:3px"/><polygon points="340.92 110.87 333.63 100.16 326.06 110.87 340.92 110.87" style="fill:#fff;stroke:#fff;stroke-linecap:round;stroke-linejoin:round;stroke-width:3px"/></g><rect x="199.87" y="92.84" width="53.58" height="5.79" style="fill:#eaeaea"/><rect x="199.87" y="102.62" width="53.58" height="5.79" style="fill:#eaeaea"/><rect x="199.87" y="112.41" width="18.67" height="5.79" style="fill:#eaeaea"/><rect x="200.46" y="131.02" width="31.55" height="12.07" rx="6.04" style="fill:#141414"/><g style="isolation:isolate"><g style="clip-path:url(#clip-path)"><path d="M336,143.24h-3.71L331,145.83a6.7,6.7,0,0,1-5.82,3.79H306.52a4.86,4.86,0,0,1-4.83-3.79l-.62-2.59h-3.7c-11.24,0-21.7,9.57-23.25,21.27l-13.48,102c-1.55,11.7,6.38,21.28,17.62,21.28h38.66c11.24,0,21.7-9.58,23.24-21.28l13.49-102c1.54-11.7-6.38-21.27-17.62-21.27"/><path d="M332.81,142.28h-32l.23,1,.62,2.59a4.86,4.86,0,0,0,4.83,3.79h18.66a6.7,6.7,0,0,0,5.82-3.79l1.32-2.59.49-1"/></g></g><g style="isolation:isolate"><g style="clip-path:url(#clip-path-2)"><path d="M325.9,142.68h-3.53l-1.55,3.08a6.73,6.73,0,0,1-5.82,3.79H296.32a4.85,4.85,0,0,1-4.81-3.79l-.74-3.08h-3.53c-10.51,0-20.24,8.91-21.69,19.85l-13.48,102c-1.45,10.95,5.93,19.85,16.44,19.85h38.66c10.51,0,20.24-8.9,21.68-19.85l13.49-102c1.44-10.94-5.93-19.85-16.44-19.85" style="fill:#fff"/><path d="M290.77,142.68l-.12-.48h32l-.24.48h3.53c10.51,0,17.88,8.91,16.44,19.85l-13.49,102c-1.44,10.95-11.17,19.85-21.68,19.85H268.51c-10.51,0-17.89-8.9-16.44-19.85l13.48-102c1.45-10.94,11.18-19.85,21.69-19.85h3.53m35.51-2.85H287.62c-12,0-23.15,10.18-24.81,22.7l-13.48,102c-1.65,12.53,6.79,22.7,18.81,22.7H306.8c12,0,23.15-10.17,24.8-22.7l13.48-102c1.66-12.52-6.78-22.7-18.8-22.7"/><path d="M322.61,142.2h-32l.12.48.74,3.08a4.85,4.85,0,0,0,4.81,3.79H315a6.73,6.73,0,0,0,5.82-3.79l1.55-3.08.24-.48"/></g></g><g style="isolation:isolate"><g style="clip-path:url(#clip-path-3)"><path d="M297.52,305.73h-.08a5.65,5.65,0,0,0-5.24,4.86v.07l-2.14,18,9.34-.14h0L301,314.84h0l0-.12.5-4.2a4.1,4.1,0,0,0-4-4.79" style="fill:#f9e606"/><path d="M298,301.93h-.12a9.09,9.09,0,0,0-5.13,1.76q0,.39-.06.78l-2.87,24.2h.23l2.14-18v-.07a5.65,5.65,0,0,1,5.24-4.86h.08a4.1,4.1,0,0,1,4,4.79l-.5,4.2v0a10.31,10.31,0,0,1,4.08-6.8,7.09,7.09,0,0,0-7.11-6"/><path d="M310,309.85h-.08a5.64,5.64,0,0,0-5.24,4.85v.07l-1.62,13.7a2.17,2.17,0,0,1-2.05,1.92h0a1.59,1.59,0,0,1-1.58-1.87l-9.34.14h-.23a2.18,2.18,0,0,1-2.05,1.92h0a1.59,1.59,0,0,1-1.58-1.87l-4.67.07-4.67.07h0a2.2,2.2,0,0,1-2.05,1.93h-.26a1.59,1.59,0,0,1-1.58-1.87l-9.34.14a1.67,1.67,0,0,1-.1.43,2.2,2.2,0,0,1-.5.83,2.09,2.09,0,0,1-1.48.67,1.24,1.24,0,0,1-.27,0h-.07a1.53,1.53,0,0,1-.71-.35l-10.42-8a8,8,0,0,0-4.9-1.72h0a8.22,8.22,0,0,0-1,.06,5.67,5.67,0,0,0-2.07.64,4.09,4.09,0,0,0-1.44,1.35,2.24,2.24,0,0,0-.4,1,4.17,4.17,0,0,0,.28,1.87,76.64,76.64,0,0,0,3.58,8.43,72.53,72.53,0,0,0,3.54,6.52,51.38,51.38,0,0,1,2.73,4.83,23.11,23.11,0,0,0,2.31,4,30,30,0,0,1,2.39,3.72,84,84,0,0,0,8,12,51.51,51.51,0,0,0,13.58,12.3,27.7,27.7,0,0,0,14.14,3.72,34.87,34.87,0,0,0,4.41-.29,15.12,15.12,0,0,0,12.54-12.83l0-.19.83-7c1.4-11.82,3.87-32.64,3.87-32.64l1.63-13.7a4.09,4.09,0,0,0-4-4.78" style="fill:#f9e606"/><path d="M261.18,331h0m1.82-.63a2.06,2.06,0,0,1-1.45.66h0a1.12,1.12,0,0,1-.27,0,1.24,1.24,0,0,0,.27,0,2.09,2.09,0,0,0,1.48-.67m.6-1.26h0a2.07,2.07,0,0,1-.1.43,1.67,1.67,0,0,0,.1-.43h0m46.9-23h-.14a9.2,9.2,0,0,0-5.24,1.86,10.31,10.31,0,0,0-4.08,6.8v0l0,.12h0l-1.62,13.68h0a1.59,1.59,0,0,0,1.58,1.87h0a2.17,2.17,0,0,0,2.05-1.92l1.62-13.7v-.07a5.64,5.64,0,0,1,5.24-4.85H310a4.09,4.09,0,0,1,4,4.78l-1.63,13.7s-2.47,20.82-3.87,32.64l-.83,7,0,.19A15.12,15.12,0,0,1,295.14,381a34.87,34.87,0,0,1-4.41.29,27.7,27.7,0,0,1-14.14-3.72A51.51,51.51,0,0,1,263,365.29a84,84,0,0,1-8-12,30,30,0,0,0-2.39-3.72,23.11,23.11,0,0,1-2.31-4,51.38,51.38,0,0,0-2.73-4.83,72.53,72.53,0,0,1-3.54-6.52,76.64,76.64,0,0,1-3.58-8.43,4.17,4.17,0,0,1-.28-1.87,2.24,2.24,0,0,1,.4-1,4.09,4.09,0,0,1,1.44-1.35,5.67,5.67,0,0,1,2.07-.64,8.22,8.22,0,0,1,1-.06h0a8,8,0,0,1,4.9,1.72l10.42,8a1.69,1.69,0,0,1-.53-1.49l.43-3.64-7.86-6.07a11.31,11.31,0,0,0-6.9-2.37,11.89,11.89,0,0,0-1.44.1,9.47,9.47,0,0,0-3.53,1.13,8.68,8.68,0,0,0-3,2.77,6.72,6.72,0,0,0-1.12,2.88,7.86,7.86,0,0,0,.45,3.56,81.28,81.28,0,0,0,3.71,8.79,76,76,0,0,0,3.7,6.79,51.34,51.34,0,0,1,2.57,4.53,26.59,26.59,0,0,0,2.59,4.52,26.2,26.2,0,0,1,2.19,3.39A87.39,87.39,0,0,0,260,367.94a54.3,54.3,0,0,0,14.42,13,30.87,30.87,0,0,0,15.7,4.15h.06a36.48,36.48,0,0,0,4.89-.33c8.17-1.08,15.11-8.18,16.22-16.6l0-.23h0l.84-7c.7-5.91,1.66-14.06,2.46-20.75.39-3.34.74-6.31,1-8.45s.4-3.43.4-3.44l1.62-13.69c.55-4.74-2.65-8.53-7.18-8.54"/><path d="M285,299.74h-.09a5.64,5.64,0,0,0-5.23,4.85v.07h0l-2.87,24.2,4.67-.07,4.67-.07h0L289,304.53a4.08,4.08,0,0,0-4-4.79" style="fill:#f9e606"/><path d="M285.52,295.93h-.13a9.15,9.15,0,0,0-5.1,1.74l-3.69,31.19a2.18,2.18,0,0,1-2,1.92h.14a2.2,2.2,0,0,0,2.05-1.93h0l2.87-24.2h0v-.07a5.64,5.64,0,0,1,5.23-4.85H285a4.08,4.08,0,0,1,4,4.79l-2.86,24.19h0a1.59,1.59,0,0,0,1.58,1.87h0a2.18,2.18,0,0,0,2.05-1.92l2.87-24.2q0-.39.06-.78a7.22,7.22,0,0,0-7.24-7.76"/><path d="M274.92,273.49h-.08a5.64,5.64,0,0,0-5.23,4.85v.07l-6,50.64h0l9.34-.14h0l6-50.63a4.09,4.09,0,0,0-4-4.79" style="fill:#f9e606"/><path d="M275.41,269.68h-.12c-4.55.07-8.7,3.93-9.34,8.65v.12l-5.57,47-.43,3.64a1.69,1.69,0,0,0,.53,1.49,1.53,1.53,0,0,0,.71.35h.07a1.12,1.12,0,0,0,.27,0h0a2.06,2.06,0,0,0,1.45-.66,2.2,2.2,0,0,0,.5-.83,2.07,2.07,0,0,0,.1-.43h0l6-50.64v-.07a5.64,5.64,0,0,1,5.23-4.85h.08a4.09,4.09,0,0,1,4,4.79l-6,50.63h0a1.59,1.59,0,0,0,1.58,1.87h.12a2.18,2.18,0,0,0,2-1.92l3.69-31.19,2.31-19.45c.56-4.74-2.65-8.53-7.19-8.54"/></g></g><g style="isolation:isolate"><g style="clip-path:url(#clip-path-4)"><path d="M294.53,305.73h-.09a5.64,5.64,0,0,0-5.23,4.86v.07l-2.13,18,9.34-.14h0l2.12-18a4.09,4.09,0,0,0-4-4.79" style="fill:#f9e606"/><path d="M295,301.93h-.12a9.06,9.06,0,0,0-5.14,1.77c0,.25,0,.51-.05.77l-2.87,24.2h.24l2.13-18v-.07a5.64,5.64,0,0,1,5.23-4.86h.09a4.09,4.09,0,0,1,4,4.79l-2.12,18h0L298,314.84h0l0-.14a10.21,10.21,0,0,1,4.07-6.8,7.09,7.09,0,0,0-7.11-6"/><path d="M307,309.85h-.08a5.63,5.63,0,0,0-5.23,4.85v.07l-1.62,13.7a2.19,2.19,0,0,1-2.06,1.92h0a1.58,1.58,0,0,1-1.57-1.87l-9.34.14h-.24a2.19,2.19,0,0,1-2.05,1.92h0a1.59,1.59,0,0,1-1.58-1.87l-4.66.07-4.68.07h0a2.2,2.2,0,0,1-2.05,1.93h-.26a1.59,1.59,0,0,1-1.58-1.87l-9.33.14a2.26,2.26,0,0,1-.11.43,2.2,2.2,0,0,1-.5.83,2.05,2.05,0,0,1-1.48.67,2.2,2.2,0,0,1-.36,0h0l-.06,0a1.5,1.5,0,0,1-.65-.34l-10.4-8a8,8,0,0,0-4.9-1.72h0a7.93,7.93,0,0,0-1,.06,5.72,5.72,0,0,0-2.08.64,4,4,0,0,0-1.43,1.35,2.16,2.16,0,0,0-.41,1,4.06,4.06,0,0,0,.29,1.87,74.69,74.69,0,0,0,3.57,8.43,67.48,67.48,0,0,0,3.55,6.52,51.27,51.27,0,0,1,2.72,4.83,23.11,23.11,0,0,0,2.31,4,29.86,29.86,0,0,1,2.4,3.72,82.3,82.3,0,0,0,8,12,51.15,51.15,0,0,0,13.57,12.3,27.73,27.73,0,0,0,14.14,3.72,34.63,34.63,0,0,0,4.41-.29,15.12,15.12,0,0,0,12.54-12.83l0-.19.84-7c1.4-11.82,3.86-32.64,3.86-32.64l1.62-13.7a4.09,4.09,0,0,0-4-4.78" style="fill:#f9e606"/><path d="M258.1,330.93l.06,0-.06,0m1.9-.61a2,2,0,0,1-1.45.66h0a2.2,2.2,0,0,1-.36,0,2.2,2.2,0,0,0,.36,0,2.05,2.05,0,0,0,1.48-.67m.61-1.26h0a1.58,1.58,0,0,1-.1.43,2.26,2.26,0,0,0,.11-.43h0m46.89-23h-.14a9.2,9.2,0,0,0-5.24,1.86,10.21,10.21,0,0,0-4.07,6.8l0,.14h0l-1.62,13.68h0a1.58,1.58,0,0,0,1.57,1.87h0a2.19,2.19,0,0,0,2.06-1.92l1.62-13.7v-.07a5.63,5.63,0,0,1,5.23-4.85H307a4.09,4.09,0,0,1,4,4.78l-1.62,13.7s-2.46,20.82-3.86,32.64l-.84,7,0,.19A15.12,15.12,0,0,1,292.14,381a34.63,34.63,0,0,1-4.41.29,27.73,27.73,0,0,1-14.14-3.72A51.15,51.15,0,0,1,260,365.29a82.3,82.3,0,0,1-8-12,29.86,29.86,0,0,0-2.4-3.72,23.11,23.11,0,0,1-2.31-4,51.27,51.27,0,0,0-2.72-4.83,67.48,67.48,0,0,1-3.55-6.52,74.69,74.69,0,0,1-3.57-8.43,4.06,4.06,0,0,1-.29-1.87,2.16,2.16,0,0,1,.41-1,4,4,0,0,1,1.43-1.35,5.72,5.72,0,0,1,2.08-.64,7.93,7.93,0,0,1,1-.06h0a8,8,0,0,1,4.9,1.72l10.4,8a1.7,1.7,0,0,1-.51-1.48l.43-3.64-7.86-6.07a11.26,11.26,0,0,0-6.89-2.37,11.91,11.91,0,0,0-1.45.1,9.37,9.37,0,0,0-3.52,1.13,8.62,8.62,0,0,0-3,2.77,6.85,6.85,0,0,0-1.12,2.88,7.73,7.73,0,0,0,.45,3.56,79.37,79.37,0,0,0,3.72,8.79,73.81,73.81,0,0,0,3.69,6.79,48.68,48.68,0,0,1,2.56,4.53,27.92,27.92,0,0,0,2.6,4.52,26.12,26.12,0,0,1,2.2,3.39A85.46,85.46,0,0,0,257,367.94a54.3,54.3,0,0,0,14.42,13,30.91,30.91,0,0,0,15.71,4.15h.06a36.45,36.45,0,0,0,4.88-.33c8.17-1.08,15.11-8.18,16.22-16.6l0-.23h0l.84-7c.69-5.91,1.67-14.06,2.46-20.75.39-3.34.74-6.31,1-8.45s.41-3.43.42-3.44l1.62-13.69c.55-4.74-2.66-8.53-7.19-8.54"/><path d="M282,299.74h-.08a5.64,5.64,0,0,0-5.23,4.85v.07h0l-2.87,24.2,4.68-.07,4.66-.07h0L286,304.53a4.1,4.1,0,0,0-4-4.79" style="fill:#f9e606"/><path d="M282.51,295.93h-.11a9.13,9.13,0,0,0-5.1,1.74l-3.7,31.19a2.19,2.19,0,0,1-2,1.92h.14a2.2,2.2,0,0,0,2.05-1.93h0l2.87-24.2h0v-.07a5.64,5.64,0,0,1,5.23-4.85H282a4.1,4.1,0,0,1,4,4.79l-2.87,24.19h0a1.59,1.59,0,0,0,1.58,1.87h0a2.19,2.19,0,0,0,2.05-1.92l2.87-24.2c0-.26,0-.52.05-.77a7.22,7.22,0,0,0-7.24-7.77"/><path d="M271.93,273.49h-.09a5.64,5.64,0,0,0-5.23,4.85v.07l-6,50.64h0l9.33-.14h0l6-50.63a4.09,4.09,0,0,0-4-4.79" style="fill:#f9e606"/><path d="M272.41,269.68h-.11a10,10,0,0,0-9.34,8.65l0,.12-5.57,47-.43,3.64a1.7,1.7,0,0,0,.51,1.48,1.5,1.5,0,0,0,.65.34l.06,0h0a2.2,2.2,0,0,0,.36,0h0a2,2,0,0,0,1.45-.66,2.2,2.2,0,0,0,.5-.83,1.58,1.58,0,0,0,.1-.43h0l6-50.64v-.07a5.64,5.64,0,0,1,5.23-4.85h.09a4.09,4.09,0,0,1,4,4.79l-6,50.63h0a1.59,1.59,0,0,0,1.58,1.87h.12a2.19,2.19,0,0,0,2-1.92l3.7-31.19,2.3-19.45c.55-4.74-2.66-8.53-7.19-8.54"/></g></g><g style="isolation:isolate"><g style="clip-path:url(#clip-path-5)"><polyline points="319.02 213.15 272.68 213.15 271.61 221.22 317.96 221.22 319.02 213.15" style="fill:#141414"/><polyline points="303.86 227.96 270.69 227.96 270.19 231.69 303.37 231.69 303.86 227.96" style="fill:#eaeaea"/><polyline points="303.03 234.27 269.85 234.27 269.36 238 302.53 238 303.03 234.27" style="fill:#eaeaea"/><polyline points="280.58 240.58 269.02 240.58 268.52 244.31 280.08 244.31 280.58 240.58" style="fill:#eaeaea"/></g></g><rect x="263.94" y="261.83" width="31.55" height="12.07" rx="6.04" style="fill:#141414"/><g id="Pic_Wireframe-2" data-name="Pic Wireframe"><g style="isolation:isolate"><g style="clip-path:url(#clip-path-6)"><path d="M294.28,184.92a1.14,1.14,0,0,1-1.08-.71,1.49,1.49,0,0,1,.17-1.42l5.22-7.75a1.59,1.59,0,0,1,1.29-.73,1.16,1.16,0,0,1,1.1.75l1.36,3.51,1.31-1.45a1.57,1.57,0,0,1,1.15-.54,1.18,1.18,0,0,1,1,.56l3.3,5.48a1.47,1.47,0,0,1-.06,1.5,1.59,1.59,0,0,1-1.34.8H294.28m48-23.95H265.8l-4.93,37.3h76.49l4.93-37.3" style="fill:#eaeaea"/><polyline points="299.27 178.69 297 182.07 299.21 182.07 300.16 181 299.27 178.69" style="fill:#fff"/><path d="M299.88,174.31a1.59,1.59,0,0,0-1.29.73l-5.22,7.75a1.49,1.49,0,0,0-.17,1.42,1.14,1.14,0,0,0,1.08.71h5.22a1.16,1.16,0,0,1-1.13-.81,1.57,1.57,0,0,1,.36-1.5l.48-.54H297l2.27-3.38.89,2.31,2.18-2.43L301,175.06a1.16,1.16,0,0,0-1.1-.75" style="fill:#fff"/><polyline points="304.27 180.33 302.71 182.07 305.32 182.07 304.27 180.33" style="fill:#fff"/><path d="M302.71,182.07l1.56-1.74,1.05,1.74h-2.61m2.09-5.49a1.57,1.57,0,0,0-1.15.54l-1.31,1.45L300.16,181l-1,1.07-.48.54a1.57,1.57,0,0,0-.36,1.5,1.16,1.16,0,0,0,1.13.81h8.21a1.59,1.59,0,0,0,1.34-.8,1.47,1.47,0,0,0,.06-1.5l-3.3-5.48a1.18,1.18,0,0,0-1-.56" style="fill:#fff"/></g></g></g><polygon points="177.84 255.68 191.49 223.76 169.6 214.4 228.84 163.91 230.62 240.5 209.71 231.55 196.06 263.47 177.84 255.68" style="fill:#f9e606;stroke:#000;stroke-linecap:round;stroke-linejoin:round;stroke-width:4px"/><polygon points="174.84 254.68 188.49 222.76 166.6 213.4 225.84 162.91 227.62 239.5 206.71 230.55 193.06 262.47 174.84 254.68" style="fill:#f9e606;stroke:#000;stroke-linecap:round;stroke-linejoin:round;stroke-width:4px"/></g></g></svg>