<svg xmlns="http://www.w3.org/2000/svg" xmlns:xlink="http://www.w3.org/1999/xlink" viewBox="0 0 443.37 378.18"><defs><style>.cls-1,.cls-15,.cls-23{opacity:0.2;}.cls-10,.cls-11,.cls-13,.cls-14,.cls-15,.cls-17,.cls-2,.cls-27{fill:#ffe91f;}.cls-12,.cls-3,.cls-6,.cls-7,.cls-8{fill:#141414;}.cls-10,.cls-11,.cls-13,.cls-16,.cls-18,.cls-22,.cls-28,.cls-3,.cls-4,.cls-6,.cls-8,.cls-9{stroke:#141414;}.cls-10,.cls-13,.cls-17,.cls-19,.cls-20,.cls-21,.cls-26,.cls-27,.cls-29,.cls-3,.cls-30,.cls-4,.cls-5,.cls-8{stroke-linecap:round;}.cls-10,.cls-17,.cls-19,.cls-20,.cls-21,.cls-26,.cls-27,.cls-29,.cls-3,.cls-30,.cls-4,.cls-5{stroke-linejoin:round;}.cls-10,.cls-11,.cls-12,.cls-13,.cls-22,.cls-3,.cls-4,.cls-5,.cls-6,.cls-7,.cls-8,.cls-9{stroke-width:4px;}.cls-21,.cls-22,.cls-28,.cls-29,.cls-4,.cls-5{fill:#fff;}.cls-14,.cls-17,.cls-19,.cls-20,.cls-21,.cls-26,.cls-27,.cls-29,.cls-30,.cls-5{stroke:#000;}.cls-11,.cls-12,.cls-13,.cls-16,.cls-18,.cls-22,.cls-28,.cls-6,.cls-7,.cls-8,.cls-9{stroke-miterlimit:10;}.cls-7{stroke:#eaeaea;}.cls-9{fill:#f9e606;}.cls-12{stroke:#ffe91f;}.cls-14{stroke-width:5px;}.cls-16{fill:#eaeaea;}.cls-16,.cls-17,.cls-19,.cls-28,.cls-29{stroke-width:2px;}.cls-18,.cls-19,.cls-20{fill:none;}.cls-18{stroke-width:1.5px;}.cls-20,.cls-21,.cls-26,.cls-27,.cls-30{stroke-width:3px;}.cls-24{fill:url(#linear-gradient);}.cls-25{fill:#454545;}.cls-30{fill:#f9dc0b;}</style><linearGradient id="linear-gradient" x1="177.51" y1="246.57" x2="180.9" y2="246.57" gradientUnits="userSpaceOnUse"><stop offset="0" stop-color="#fff"/><stop offset="0.98" stop-color="#fff"/></linearGradient></defs><title>Design Illustration</title><g id="Layer_2" data-name="Layer 2"><g id="Design_Illustration" data-name="Design Illustration"><g id="Colored"><g id="Blob" class="cls-1"><path class="cls-2" d="M393.73,31.16c31.4,35.7,24,105.7,17.3,169s-12.8,119.8-44.1,149.3-87.9,32-138.7,26.2-95.8-19.8-130.2-49.3-58-74.5-56.1-117.6,29.3-84.4,63.7-120.1,75.6-65.7,131.2-80.1S362.43-4.44,393.73,31.16Z"/></g><g id="Notebook"><rect class="cls-3" x="317.99" y="131.52" width="123.38" height="157.18"/><path class="cls-4" d="M418.44,288.7H285.16a406.83,406.83,0,0,0,15.43-42.43A411.76,411.76,0,0,0,318,131.52H441.37c-1.14,18.16-2.66,33-3.83,43.17-3.05,26.54-6.72,47.17-11.57,74.25C422.94,265.82,420.25,279.62,418.44,288.7Z"/><rect x="334.16" y="123.8" width="5.75" height="16.61" rx="2.65"/><rect x="348.92" y="123.8" width="5.75" height="16.61" rx="2.65"/><rect x="363.26" y="123.8" width="5.75" height="16.61" rx="2.65"/><rect x="377.31" y="123.8" width="5.75" height="16.61" rx="2.65"/><rect x="392.39" y="123.8" width="5.75" height="16.61" rx="2.65"/><rect x="406.89" y="123.8" width="5.75" height="16.61" rx="2.65"/><rect x="421.98" y="123.21" width="5.75" height="16.61" rx="2.65"/></g><g id="Window"><rect class="cls-5" x="109.91" y="23.48" width="200" height="150"/></g><g id="Window-2" data-name="Window"><rect class="cls-5" x="89.91" y="43.48" width="200" height="150"/></g><g id="Window-3" data-name="Window"><rect class="cls-5" x="71.54" y="62.11" width="200" height="150"/></g><g id="Pen"><polygon class="cls-6" points="321.47 288.69 352.84 288.69 355.75 254.15 333.48 275.41 321.47 288.69"/><circle class="cls-7" cx="229.29" cy="354.15" r="14.57"/><path class="cls-8" d="M354.41,263.46c-4,4-11,3.32-15.78-1.43s-5.4-11.82-1.43-15.79"/><path class="cls-8" d="M337,246c-4,4-11.21,3.37-16-1.46s-5.48-12-1.45-16"/><polygon class="cls-3" points="356.67 240.84 342.28 226.45 357.93 225.51 356.67 240.84"/><line class="cls-9" x1="254.02" y1="350.03" x2="340.32" y2="263.72"/><line class="cls-9" x1="233.41" y1="329.43" x2="319.72" y2="243.12"/></g><g id="Pen-2" data-name="Pen"><polyline class="cls-10" points="248.02 361.88 355.75 254.15 358.93 215.51 321.2 217.78 212.56 326.42"/><circle class="cls-11" cx="230.29" cy="344.15" r="25.07"/><circle class="cls-12" cx="230.29" cy="344.15" r="14.57"/><path class="cls-13" d="M355.41,253.46c-4,4-11,3.32-15.78-1.43s-5.4-11.82-1.43-15.79"/><path class="cls-13" d="M338,236c-4,4-11.21,3.37-16-1.46s-5.48-12-1.45-16"/><polygon class="cls-3" points="357.67 230.84 343.28 216.45 358.93 215.51 357.67 230.84"/><line class="cls-9" x1="255.02" y1="340.03" x2="341.32" y2="253.72"/><line class="cls-9" x1="234.41" y1="319.43" x2="320.72" y2="233.12"/></g><g id="Letter"><path d="M86.26,213.74V112.37H97V213.78"/><path class="cls-14" d="M71,211.26V186.39H43.62L26.43,211.26H4.81l67.72-96.37H88.81v96.37Zm0-64.59h-.26L55.08,169.72H71Z"/></g><g id="Idea_Color" data-name="Idea Color"><circle class="cls-15" cx="174.66" cy="133.99" r="15.75"/><path class="cls-16" d="M171.41,143.6h6.51a0,0,0,0,1,0,0v6.29a2.75,2.75,0,0,1-2.75,2.75h-1a2.75,2.75,0,0,1-2.75-2.75v-6.27a0,0,0,0,1,0,0Z"/><path class="cls-17" d="M185.74,135.5c0,6.13-5,8.05-11.08,8.05s-11.09-1.92-11.09-8.05a11.09,11.09,0,0,1,22.17,0Z"/><line class="cls-18" x1="171.39" y1="149.74" x2="177.92" y2="149.74"/><line class="cls-18" x1="171.39" y1="146.71" x2="177.92" y2="146.71"/><line class="cls-19" x1="174.66" y1="119.33" x2="174.66" y2="113.7"/><line class="cls-19" x1="189.31" y1="133.99" x2="194.94" y2="133.99"/><line class="cls-19" x1="154.38" y1="133.99" x2="160" y2="133.99"/><line class="cls-19" x1="185.03" y1="123.62" x2="189.01" y2="119.64"/><line class="cls-19" x1="164.29" y1="123.62" x2="160.31" y2="119.64"/></g><rect class="cls-20" x="142.89" y="101.4" width="63.54" height="63.54"/><rect class="cls-21" x="140.16" y="98.13" width="6" height="6"/><rect class="cls-21" x="140.16" y="130.17" width="6" height="6"/><rect class="cls-21" x="140.16" y="161.94" width="6" height="6"/><rect class="cls-21" x="171.66" y="161.94" width="6" height="6"/><rect class="cls-21" x="203.43" y="98.13" width="6" height="6"/><rect class="cls-21" x="203.43" y="130.17" width="6" height="6"/><rect class="cls-21" x="203.43" y="162.28" width="6" height="6"/><rect class="cls-21" x="171.66" y="98.13" width="6" height="6"/><path class="cls-22" d="M214.67,253.72c-3.21-4.43-19.79-25.88-40.15-25.88s-36.69,21.42-39.87,25.87c3.19,4.42,19.78,25.89,40.14,25.89S211.48,258.19,214.67,253.72Z"/><circle class="cls-17" cx="174.27" cy="253" r="14.6"/><path class="cls-23" d="M182.22,253a8,8,0,1,1-1.69-4.9A8,8,0,0,1,182.22,253Z"/><path class="cls-24" d="M180.9,247a1.89,1.89,0,0,1-.37,1.13,8,8,0,0,0-3-2.37A1.88,1.88,0,0,1,179,245,1.93,1.93,0,0,1,180.9,247Z"/><path class="cls-25" d="M180.53,248.1a1.88,1.88,0,0,1-1.56.8A1.93,1.93,0,0,1,177,247a1.89,1.89,0,0,1,.47-1.24A8,8,0,0,1,180.53,248.1Z"/><path class="cls-26" d="M69.43,339.58l3,3a2.44,2.44,0,0,0,3.48,0L87,331.47A2.46,2.46,0,0,0,87,328l-3.15-3.15"/><path class="cls-26" d="M86.56,320.6l3.91,3.91.08.1,23.54-11.77a2.5,2.5,0,0,0,1.19-1.29l19.5-48.75-4-4-20.11,49.62Z"/><path class="cls-27" d="M47.53,317.68l20.89,20.88a2.44,2.44,0,0,0,3.48,0L83,327.47A2.46,2.46,0,0,0,83,324L62.11,303.11a2.46,2.46,0,0,0-3.48,0L47.53,314.2A2.46,2.46,0,0,0,47.53,317.68Z"/><path class="cls-20" d="M65.59,299.63l20.88,20.88.08.1,23.54-11.77a2.5,2.5,0,0,0,1.19-1.29l19.5-48.75-29.91,29.91a7.27,7.27,0,0,1,.74,3.16,7.39,7.39,0,1,1-7.38-7.38,7.3,7.3,0,0,1,3.16.74l29.91-29.91-48.75,19.5A2.48,2.48,0,0,0,77.26,276L65.49,299.54Z"/><path d="M94.23,294.33a2.46,2.46,0,1,0-2.46-2.46A2.46,2.46,0,0,0,94.23,294.33Z"/><g id="Idea_Color-2" data-name="Idea Color"><path class="cls-28" d="M374.06,208.16h6.51a0,0,0,0,1,0,0v6.29a2.75,2.75,0,0,1-2.75,2.75h-1a2.75,2.75,0,0,1-2.75-2.75v-6.27a0,0,0,0,1,0,0Z"/><path class="cls-29" d="M388.39,200.07c0,6.12-5,8.05-11.08,8.05s-11.09-1.93-11.09-8.05a11.09,11.09,0,0,1,22.17,0Z"/><line class="cls-18" x1="374.04" y1="214.3" x2="380.57" y2="214.3"/><line class="cls-18" x1="374.04" y1="211.27" x2="380.57" y2="211.27"/></g><polygon class="cls-26" points="214.71 169.42 214.71 188.73 224.5 178.93 234.29 169.14 214.71 169.42"/><polygon class="cls-26" points="285.57 239.72 285.57 220.41 275.77 230.21 265.98 240 285.57 239.72"/><path class="cls-20" d="M223,180.65l3.2-3.21,16.16,16.16a2.11,2.11,0,0,1,0,3l-2,2"/><path class="cls-20" d="M274.11,231.75l3.21-3.21-16.06-16a2.27,2.27,0,0,0-3.2,0l-2,2"/><rect class="cls-26" x="247.48" y="192.01" width="4.54" height="24.97" rx="2.27" transform="translate(281.75 525.69) rotate(-135)"/><polygon class="cls-30" points="212.71 171.42 212.71 190.73 222.5 180.93 232.29 171.14 212.71 171.42"/><polygon class="cls-30" points="283.57 241.72 283.57 222.41 273.77 232.21 263.98 242 283.57 241.72"/><path class="cls-20" d="M229.17,177.38h4.54a0,0,0,0,1,0,0v22.85a2.12,2.12,0,0,1-2.12,2.12h0a2.42,2.42,0,0,1-2.42-2.42V177.38A0,0,0,0,1,229.17,177.38Z" transform="translate(-66.47 219.26) rotate(-45)"/><rect class="cls-21" x="244.22" y="192.44" width="4.54" height="24.97" rx="2.27" transform="translate(275.88 524.12) rotate(-135)"/><path class="cls-20" d="M264.88,210.83h0a2.27,2.27,0,0,1,2.27,2.27v22.7a0,0,0,0,1,0,0h-4.54a0,0,0,0,1,0,0V213.1A2.27,2.27,0,0,1,264.88,210.83Z" transform="translate(-80.33 252.71) rotate(-45)"/><line class="cls-26" x1="214.71" y1="169.42" x2="212.71" y2="171.42"/><line class="cls-26" x1="285.57" y1="239.72" x2="283.57" y2="241.72"/></g></g></g></svg>