<svg xmlns="http://www.w3.org/2000/svg" width="130" height="130" viewBox="0 0 130 130"><defs><style>.a{fill:#fff;}</style></defs><g transform="translate(-1623 -67)"><circle cx="65" cy="65" r="65" transform="translate(1623 67)"/><g transform="translate(397.946 7.536)"><path class="a" d="M1234.739,105.3l.862-2.059c1.061-2.536,3.17-3.5,5.594-2.487,2.481,1.038,3.213,3.205,2.158,5.73l-.863,2.06Zm7.285.563a2.733,2.733,0,0,0-5.038-2.108l-.231.554,5.038,2.108Z"/><path class="a" d="M1238.954,96.205l2.258-3.684,1.3.8-1.373,2.24,1.6.979,1.18-1.923,1.279.782-1.179,1.925,1.7,1.041,1.43-2.333,1.29.79-2.315,3.775Z"/><path class="a" d="M1250.647,89.733,1248,84.116l1.458-1.627,6.256,5.609-1.082,1.206-4.469-4.006,2.484,5.16-1.05,1.17-5.4-1.907,4.468,4.007-1.082,1.206-6.255-5.609,1.458-1.626Z"/><path class="a" d="M1257.7,83.816l.695,2.171L1257.021,87l-2.594-8.523,1.427-1.055,7.382,4.99-1.371,1.011-1.871-1.3Zm-1.48-4.409,1.013,3.01,1.574-1.162Z"/><path class="a" d="M1263.743,75.695l2.5,5.111-1.5.732-3.684-7.547,1.541-.753,5.74,3.579-2.516-5.154,1.5-.731,3.686,7.547-1.51.737Z"/><path class="a" d="M1271.015,69.565l2.148-.6c2.645-.743,4.709.31,5.42,2.84.725,2.587-.518,4.506-3.151,5.245l-2.149.6Zm4.079,6.058a2.732,2.732,0,0,0-1.475-5.256l-.577.162,1.475,5.255Z"/><path class="a" d="M1280.782,67.2l4.291-.519.184,1.513-2.611.316.226,1.86,2.24-.272.18,1.489-2.24.272.24,1.979,2.717-.33.182,1.5-4.4.533Z"/><path class="a" d="M1288.046,73.754l4.283-5.682-4.006-.108.041-1.5,6.26.17-.029,1.1-4.307,5.682,4.186.114-.039,1.5-6.418-.174Z"/><path class="a" d="M1301.343,72.91l1.454-5.04,1.626.468-1.454,5.04a1.693,1.693,0,1,0,3.253.938l1.453-5.039,1.627.47-1.455,5.039a3.385,3.385,0,0,1-6.5-1.876Z"/><path class="a" d="M1313.245,74.359l-2.56,5.079-1.489-.751,3.781-7.5,1.531.772.622,6.735,2.582-5.121,1.488.751-3.779,7.5-1.5-.756Z"/><path class="a" d="M1326.321,79.22l1.668,1.48c2.055,1.824,2.286,4.13.542,6.094-1.783,2.009-4.069,2-6.114.186l-1.668-1.481Zm-2.888,6.705a2.731,2.731,0,0,0,3.623-4.081l-.45-.4-3.622,4.081Z"/><path class="a" d="M1333.591,86.164l2.75,3.333-1.176.97-1.674-2.027-1.443,1.191,1.435,1.742-1.157.954-1.436-1.74-1.536,1.267,1.741,2.111-1.166.964-2.821-3.417Z"/><path class="a" d="M1332.464,98.745l5.666-6.929.943,1.6-4.43,5.1,6.61-1.4.943,1.6-8.8,1.6Z"/><path class="a" d="M1343.335,101.457l.656,1.559-7.742,3.262-.656-1.559Z"/><path class="a" d="M1345.021,111.547l-1-1.169a1.314,1.314,0,0,0,.533-1.43.815.815,0,0,0-1.028-.65c-1.336.39-.119,3.833-2.619,4.561a2.535,2.535,0,0,1-3.237-1.98,2.83,2.83,0,0,1,1.087-3.215l1.066,1.176a1.566,1.566,0,0,0-.618,1.691c.175.6.589.866,1.107.715,1.382-.4.138-3.813,2.718-4.565a2.38,2.38,0,0,1,3.03,1.865A2.644,2.644,0,0,1,1345.021,111.547Z"/><path class="a" d="M1343.579,123.2a2.064,2.064,0,1,1-2.076,2.051A2.033,2.033,0,0,1,1343.579,123.2Z"/><path class="a" d="M1346.39,139.925l-.687,2.125c-.845,2.615-2.865,3.752-5.366,2.944-2.559-.827-3.469-2.925-2.627-5.53l.686-2.122Zm-7.306.047a2.732,2.732,0,0,0,5.2,1.68l.186-.57-5.2-1.68Z"/><path class="a" d="M1342.95,149.334l-1.944,3.857-1.36-.685,1.181-2.346-1.671-.843-1.015,2.015-1.339-.676,1.015-2.014-1.779-.9-1.23,2.442-1.351-.68,1.993-3.953Z"/><path class="a" d="M1331.823,156.756l3.112,5.379-1.32,1.741-6.7-5.069.979-1.292,4.785,3.621-2.9-4.936.95-1.254,5.539,1.452-4.786-3.622.977-1.291,6.7,5.07-1.318,1.742Z"/><path class="a" d="M1325.3,163.229l-.873-2.105,1.279-1.124,3.3,8.273-1.334,1.171-7.773-4.35,1.281-1.123,1.973,1.14Zm1.845,4.268-1.262-2.913-1.47,1.29Z"/><path class="a" d="M1319.95,171.832l-2.913-4.884,1.433-.854,4.3,7.212-1.472.879-6.019-3.087,2.938,4.925-1.432.854-4.3-7.212,1.442-.861Z"/><path class="a" d="M1313.185,178.564l-2.09.78c-2.576.96-4.723.081-5.64-2.381-.938-2.519.142-4.535,2.705-5.49l2.091-.78Zm-4.571-5.7a2.732,2.732,0,0,0,1.908,5.116l.563-.21-1.908-5.115Z"/><path class="a" d="M1303.673,181.717l-4.235.873-.307-1.494,2.576-.531-.38-1.835-2.21.456-.3-1.47,2.212-.456-.4-1.952-2.682.552-.3-1.481,4.34-.9Z"/><path class="a" d="M1295.868,175.784l-3.8,6.021,4-.222.084,1.5-6.259.347-.061-1.1,3.826-6.022-4.183.233-.084-1.5,6.415-.357Z"/><path class="a" d="M1282.722,177.732l-1.028,5.145-1.66-.333,1.028-5.144a1.694,1.694,0,1,0-3.321-.664l-1.027,5.145-1.66-.331,1.028-5.145a3.386,3.386,0,0,1,6.64,1.327Z"/><path class="a" d="M1270.7,177.269l2.133-5.272,1.547.626-3.153,7.786-1.589-.643-1.174-6.663-2.153,5.316-1.546-.625,3.152-7.787,1.557.631Z"/><path class="a" d="M1257.291,173.517l-1.786-1.337c-2.2-1.647-2.621-3.927-1.047-6.031,1.611-2.151,3.891-2.333,6.082-.693l1.785,1.338Zm2.323-6.925a2.732,2.732,0,0,0-3.273,4.37l.48.36,3.273-4.37Z"/><path class="a" d="M1249.48,167.194l-3.016-3.087,1.09-1.065,1.835,1.878,1.338-1.307L1249.151,162l1.073-1.047,1.576,1.612,1.424-1.391-1.912-1.955,1.082-1.056,3.091,3.165Z"/><path class="a" d="M1249.54,154.56l-5.068,7.371-1.073-1.517,3.989-5.45-6.467,1.944-1.073-1.517,8.633-2.33Z"/><path class="a" d="M1238.475,152.754l-.784-1.5,7.452-3.889.784,1.5Z"/><path class="a" d="M1235.962,142.86l1.1,1.084a1.313,1.313,0,0,0-.414,1.471.817.817,0,0,0,1.08.564c1.3-.5-.2-3.835,2.232-4.77a2.539,2.539,0,0,1,3.4,1.707,2.836,2.836,0,0,1-.817,3.3l-1.162-1.085a1.57,1.57,0,0,0,.477-1.739.861.861,0,0,0-1.164-.62c-1.346.516.178,3.815-2.333,4.78a2.38,2.38,0,0,1-3.177-1.609A2.646,2.646,0,0,1,1235.962,142.86Z"/><path class="a" d="M1236.112,126.786a2.065,2.065,0,1,1,2.071-2.057A2.035,2.035,0,0,1,1236.112,126.786Z"/><path class="a" d="M1300.452,100.469V128.53l-21.126-27.79a23.909,23.909,0,0,1,10.78-2.492A25.312,25.312,0,0,1,1300.452,100.469Z"/><path class="a" d="M1301.428,145.485a23.971,23.971,0,0,1-11.322,2.763,24.51,24.51,0,0,1-10.347-2.275V117.046Z"/></g></g></svg>