<svg xmlns="http://www.w3.org/2000/svg" viewBox="0 0 130 130"><g id="Layer_2" data-name="Layer 2"><g id="Layer_1-2" data-name="Layer 1"><circle cx="65" cy="65" r="65"/><path d="M28.24,63.69l.86-2.06c1.07-2.53,3.17-3.49,5.59-2.48s3.21,3.21,2.15,5.73L36,66.93Zm7.28.57A2.45,2.45,0,0,0,34,60.78a2.45,2.45,0,0,0-3.52,1.37l-.24.55,5,2.11Z" transform="translate(-18.29 -18.31)" fill="#fff"/><path d="M32.46,54.59l2.25-3.68,1.3.8L34.64,54l1.59,1L37.41,53l1.28.78-1.18,1.93,1.7,1,1.42-2.33,1.29.79L39.61,59Z" transform="translate(-18.29 -18.31)" fill="#fff"/><path d="M44.13,48.14l-2.65-5.61,1.46-1.62,6.24,5.6-1.08,1.2-4.46-4,2.48,5.16-1,1.17-5.39-1.91,4.46,4-1.08,1.21-6.25-5.61,1.46-1.62Z" transform="translate(-18.29 -18.31)" fill="#fff"/><path d="M51.17,42.23l.7,2.17-1.37,1-2.6-8.52,1.43-1.06,7.38,5-1.37,1-1.87-1.3Zm-1.48-4.41,1,3,1.57-1.17Z" transform="translate(-18.29 -18.31)" fill="#fff"/><path d="M57.22,34.12l2.49,5.1-1.5.73-3.68-7.54,1.54-.75,5.73,3.58-2.51-5.15,1.5-.73,3.68,7.54L63,37.64Z" transform="translate(-18.29 -18.31)" fill="#fff"/><path d="M64.52,28l2.15-.6c2.64-.74,4.7.31,5.41,2.84s-.52,4.5-3.15,5.24l-2.15.6ZM68.59,34a2.43,2.43,0,0,0,1.79-3.34,2.45,2.45,0,0,0-3.26-1.91l-.58.16L68,34.19Z" transform="translate(-18.29 -18.31)" fill="#fff"/><path d="M74.28,25.62l4.29-.52.18,1.52-2.61.31.23,1.86,2.24-.27L78.78,30l-2.24.27.24,2,2.72-.32.18,1.5-4.4.53Z" transform="translate(-18.29 -18.31)" fill="#fff"/><path d="M81.53,32.17l4.29-5.67-4-.11,0-1.5,6.26.18,0,1.1-4.31,5.67L88,32l0,1.5-6.42-.18Z" transform="translate(-18.29 -18.31)" fill="#fff"/><path d="M94.78,31.33l1.45-5,1.63.47-1.46,5a1.69,1.69,0,1,0,3.25.94l1.45-5,1.63.47-1.46,5a3.38,3.38,0,0,1-6.49-1.88Z" transform="translate(-18.29 -18.31)" fill="#fff"/><path d="M106.69,32.79l-2.56,5.07-1.49-.75,3.78-7.48,1.53.77.62,6.73L111.15,32l1.48.75-3.78,7.48-1.49-.75Z" transform="translate(-18.29 -18.31)" fill="#fff"/><path d="M119.78,37.66l1.66,1.48c2.06,1.83,2.28,4.14.54,6.1s-4.07,2-6.12.18l-1.66-1.49Zm-2.9,6.71a2.45,2.45,0,0,0,3.78-.3,2.46,2.46,0,0,0-.15-3.78l-.45-.4L116.43,44Z" transform="translate(-18.29 -18.31)" fill="#fff"/><path d="M127,44.59l2.74,3.33-1.17,1-1.67-2-1.44,1.18,1.43,1.74-1.16,1L124.31,49l-1.54,1.26,1.74,2.11-1.16,1-2.82-3.41Z" transform="translate(-18.29 -18.31)" fill="#fff"/><path d="M125.89,57.18l5.66-6.92.95,1.6L128.07,57l6.6-1.39.94,1.6-8.79,1.6Z" transform="translate(-18.29 -18.31)" fill="#fff"/><path d="M136.73,59.86l.66,1.56-7.74,3.25L129,63.11Z" transform="translate(-18.29 -18.31)" fill="#fff"/><path d="M138.42,69.94l-1-1.17a1.3,1.3,0,0,0,.53-1.43.81.81,0,0,0-1-.65c-1.34.39-.12,3.83-2.62,4.56a2.54,2.54,0,0,1-3.24-2,2.83,2.83,0,0,1,1.09-3.21l1.07,1.17a1.55,1.55,0,0,0-.62,1.69c.17.6.59.87,1.1.72,1.38-.41.14-3.82,2.72-4.57a2.38,2.38,0,0,1,3,1.87A2.65,2.65,0,0,1,138.42,69.94Z" transform="translate(-18.29 -18.31)" fill="#fff"/><path d="M137,81.62a2.06,2.06,0,1,1-2.07,2A2,2,0,0,1,137,81.62Z" transform="translate(-18.29 -18.31)" fill="#fff"/><path d="M139.78,98.29l-.69,2.12c-.85,2.61-2.87,3.75-5.36,2.94s-3.46-2.93-2.62-5.53l.69-2.12Zm-7.3,0a2.73,2.73,0,0,0,5.19,1.68l.18-.57-5.18-1.68Z" transform="translate(-18.29 -18.31)" fill="#fff"/><path d="M136.33,107.74l-2,3.85L133,110.9l1.19-2.34-1.67-.85-1,2-1.34-.68,1-2-1.78-.9-1.23,2.44-1.35-.68,2-4Z" transform="translate(-18.29 -18.31)" fill="#fff"/><path d="M125.23,115.1l3.11,5.37L127,122.21l-6.69-5.06,1-1.29,4.77,3.61-2.89-4.93.94-1.25,5.54,1.45-4.78-3.61,1-1.3,6.7,5.07-1.32,1.74Z" transform="translate(-18.29 -18.31)" fill="#fff"/><path d="M118.7,121.58l-.87-2.1,1.28-1.12,3.3,8.27-1.34,1.17-7.77-4.35,1.28-1.12,2,1.14Zm1.85,4.27-1.27-2.91-1.47,1.29Z" transform="translate(-18.29 -18.31)" fill="#fff"/><path d="M113.36,130.16l-2.9-4.88,1.43-.85,4.29,7.21-1.47.87-6-3.08,2.93,4.92-1.43.85L105.91,128l1.44-.85Z" transform="translate(-18.29 -18.31)" fill="#fff"/><path d="M106.6,136.89l-2.09.78c-2.57,1-4.71.08-5.63-2.38s.15-4.53,2.71-5.49l2.09-.78Zm-4.56-5.7a2.73,2.73,0,0,0,1.9,5.12l.56-.21L102.6,131Z" transform="translate(-18.29 -18.31)" fill="#fff"/><path d="M97.06,140.05l-4.23.87-.31-1.49,2.58-.53-.38-1.84-2.21.46-.3-1.47,2.21-.45-.4-2-2.68.55-.3-1.48,4.33-.89Z" transform="translate(-18.29 -18.31)" fill="#fff"/><path d="M89.31,134.11l-3.8,6,4-.22.08,1.5-6.25.34-.06-1.1,3.82-6-4.17.23-.09-1.49,6.41-.36Z" transform="translate(-18.29 -18.31)" fill="#fff"/><path d="M76.13,136.05l-1,5.14-1.66-.34,1-5.13a1.69,1.69,0,1,0-3.32-.67l-1,5.14-1.65-.33,1-5.14a3.38,3.38,0,0,1,6.62,1.33Z" transform="translate(-18.29 -18.31)" fill="#fff"/><path d="M64.17,135.6l2.13-5.27,1.54.62-3.14,7.78-1.59-.64-1.18-6.65-2.14,5.31-1.55-.63,3.15-7.78,1.55.63Z" transform="translate(-18.29 -18.31)" fill="#fff"/><path d="M50.73,131.82l-1.79-1.34c-2.19-1.65-2.61-3.93-1-6s3.89-2.32,6.07-.68l1.78,1.34Zm2.32-6.92a2.73,2.73,0,0,0-3.27,4.36l.48.36,3.27-4.36Z" transform="translate(-18.29 -18.31)" fill="#fff"/><path d="M42.92,125.5l-3-3.09L41,121.35l1.83,1.88,1.34-1.31-1.57-1.61,1.07-1,1.58,1.62,1.42-1.39-1.91-2,1.08-1.06,3.09,3.17Z" transform="translate(-18.29 -18.31)" fill="#fff"/><path d="M43,112.87l-5.08,7.37-1.07-1.52,4-5.45-6.48,1.94-1.07-1.52,8.64-2.32Z" transform="translate(-18.29 -18.31)" fill="#fff"/><path d="M32,111.11l-.79-1.5,7.44-3.89.78,1.5Z" transform="translate(-18.29 -18.31)" fill="#fff"/><path d="M29.44,101.18l1.1,1.08a1.29,1.29,0,0,0-.41,1.47.8.8,0,0,0,1.07.56c1.3-.49-.19-3.83,2.24-4.76a2.53,2.53,0,0,1,3.39,1.71,2.84,2.84,0,0,1-.82,3.29l-1.16-1.08a1.58,1.58,0,0,0,.48-1.74.87.87,0,0,0-1.17-.62c-1.34.52.18,3.81-2.33,4.78a2.38,2.38,0,0,1-3.17-1.61A2.64,2.64,0,0,1,29.44,101.18Z" transform="translate(-18.29 -18.31)" fill="#fff"/><path d="M29.61,85.16a2.06,2.06,0,1,1,2.06-2.06A2,2,0,0,1,29.61,85.16Z" transform="translate(-18.29 -18.31)" fill="#fff"/></g></g></svg>