<svg xmlns="http://www.w3.org/2000/svg" width="113.411" height="119.719" viewBox="0 0 113.411 119.719">
  <g id="nextProject" transform="translate(-989.003 -299.16)">
    <g id="Group_158" data-name="Group 158">
      <path id="Path_535" data-name="Path 535" d="M999.347,326.388l5.273,4.025-1.181,1.547-7.788-5.945,1.215-1.591,7.858.733-5.319-4.059,1.181-1.547,7.787,5.945-1.188,1.558Z" opacity="0.33"/>
      <path id="Path_536" data-name="Path 536" d="M1003.863,316.215l3.745-3.375,1.191,1.321-2.278,2.053,1.462,1.623,1.956-1.762,1.171,1.3-1.955,1.763,1.556,1.726,2.372-2.136,1.181,1.31-3.839,3.459Z" opacity="0.33"/>
      <path id="Path_537" data-name="Path 537" d="M1015.6,312.994l-5.161-2.454,1.983-1.237,3.355,1.782-.114-3.8,1.971-1.229-.064,5.714,5.345,2.536-1.864,1.164c-1.233-.6-2.46-1.22-3.681-1.827l.035,4.1-1.863,1.163Z" opacity="0.33"/>
      <path id="Path_538" data-name="Path 538" d="M1023.413,305.436l-2.136.845-.654-1.654,6.1-2.411.654,1.653-2.122.84,2.952,7.461-1.837.727Z" opacity="0.33"/>
      <path id="Path_539" data-name="Path 539" d="M1035.917,299.965l3.1-.356a2.964,2.964,0,0,1,3.547,2.664,3.038,3.038,0,0,1-2.832,3.442l-1.155.133.418,3.631-1.962.225Zm3.345,4.085a1.351,1.351,0,0,0,1.289-1.544,1.326,1.326,0,0,0-1.573-1.173l-.9.1.311,2.712Z" opacity="0.33"/>
      <path id="Path_540" data-name="Path 540" d="M1046.164,299.16l2.949.178c2.14.129,3.236,1.5,3.139,3.107a2.847,2.847,0,0,1-1.638,2.5l2.062,4.431-2.181-.131-1.671-3.945-1.048-.063-.23,3.83-1.971-.119Zm2.636,4.466a1.261,1.261,0,0,0,1.42-1.232c.048-.784-.468-1.306-1.363-1.36l-.824-.05-.156,2.586Z" opacity="0.33"/>
      <path id="Path_541" data-name="Path 541" d="M1055.479,304.774a5.1,5.1,0,1,1,3.554,6.261A4.942,4.942,0,0,1,1055.479,304.774Zm1.984.55a3.045,3.045,0,1,0,3.793-2.3A3.035,3.035,0,0,0,1057.463,305.324Z" opacity="0.33"/>
      <path id="Path_542" data-name="Path 542" d="M1066.46,311.53a5.266,5.266,0,0,0,.693.432.93.93,0,0,0,1.361-.522l3.075-6.3,1.775.865-3.23,6.62c-.8,1.636-2.187,1.737-3.547,1.074a5.653,5.653,0,0,1-1.1-.69Z" opacity="0.33"/>
      <path id="Path_543" data-name="Path 543" d="M1077.139,308.124l4.175,2.826-1,1.473-2.54-1.72-1.224,1.81,2.179,1.475-.98,1.45-2.181-1.476-1.3,1.925,2.643,1.791-.989,1.461-4.279-2.9Z" opacity="0.33"/>
      <path id="Path_544" data-name="Path 544" d="M1080.984,316.814a4.966,4.966,0,0,1,7.2-.088,4.89,4.89,0,0,1,1.465,2.67l-1.61.855a4.272,4.272,0,0,0-1.142-2.2,3.238,3.238,0,0,0-4.5,4.64,4.444,4.444,0,0,0,2.3,1.123l-.8,1.625a5.157,5.157,0,0,1-2.921-8.626Z" opacity="0.33"/>
      <path id="Path_545" data-name="Path 545" d="M1092.307,324.5l-1.338-1.867,1.445-1.035,3.817,5.327-1.446,1.035-1.329-1.855-6.521,4.673-1.151-1.605Z" opacity="0.33"/>
      <path id="Path_546" data-name="Path 546" d="M1099.964,356.136a2.407,2.407,0,1,1-2.363,2.451A2.371,2.371,0,0,1,1099.964,356.136Z" opacity="0.33"/>
      <path id="Path_547" data-name="Path 547" d="M1093.447,389.546l-5.453-3.779,1.109-1.6,8.053,5.581-1.14,1.646-7.884-.372,5.5,3.811-1.109,1.6-8.053-5.581,1.116-1.612Z" opacity="0.33"/>
      <path id="Path_548" data-name="Path 548" d="M1089.414,399.887l-3.586,3.539-1.248-1.265,2.182-2.153-1.534-1.554-1.873,1.849-1.228-1.246,1.872-1.848-1.632-1.653-2.27,2.241-1.239-1.255,3.674-3.628Z" opacity="0.33"/>
      <path id="Path_549" data-name="Path 549" d="M1077.827,403.663l5.266,2.216-1.923,1.325-3.434-1.627.288,3.8-1.912,1.318-.2-5.711-5.453-2.29,1.808-1.247c1.258.544,2.513,1.107,3.76,1.658l-.223-4.1,1.808-1.247Z" opacity="0.33"/>
      <path id="Path_550" data-name="Path 550" d="M1070.377,411.564l2.093-.943.729,1.62-5.972,2.691-.73-1.621,2.08-.937-3.292-7.311,1.8-.811Z" opacity="0.33"/>
      <path id="Path_551" data-name="Path 551" d="M1058.138,417.609l-3.081.5a2.963,2.963,0,0,1-3.667-2.5,3.036,3.036,0,0,1,2.67-3.567l1.146-.186-.585-3.607,1.949-.315Zm-3.53-3.923a1.349,1.349,0,0,0-1.215,1.6,1.325,1.325,0,0,0,1.625,1.1l.9-.146-.437-2.694Z" opacity="0.33"/>
      <path id="Path_552" data-name="Path 552" d="M1047.938,418.879l-2.952-.042c-2.14-.031-3.3-1.35-3.274-2.959a2.843,2.843,0,0,1,1.52-2.566l-2.261-4.331,2.183.033,1.848,3.861,1.05.015.055-3.834,1.973.028Zm-2.834-4.338a1.264,1.264,0,0,0-1.363,1.3c-.011.783.529,1.281,1.424,1.294l.825.012.038-2.589Z" opacity="0.33"/>
      <path id="Path_553" data-name="Path 553" d="M1038.391,413.7a5.1,5.1,0,1,1-3.836-6.089A4.939,4.939,0,0,1,1038.391,413.7Zm-2.006-.458a3.044,3.044,0,1,0-3.682,2.476A3.034,3.034,0,0,0,1036.385,413.245Z" opacity="0.33"/>
      <path id="Path_554" data-name="Path 554" d="M1027.1,407.471a5.143,5.143,0,0,0-.711-.4.928.928,0,0,0-1.334.584l-2.779,6.443-1.813-.783,2.917-6.763c.72-1.672,2.1-1.837,3.492-1.239a5.676,5.676,0,0,1,1.128.639Z" opacity="0.33"/>
      <path id="Path_555" data-name="Path 555" d="M1016.6,411.368l-4.3-2.629.927-1.516,2.617,1.6,1.138-1.864-2.246-1.372.913-1.493,2.246,1.372,1.212-1.984-2.724-1.664.92-1.5,4.409,2.693Z" opacity="0.33"/>
      <path id="Path_556" data-name="Path 556" d="M1012.329,402.848a4.968,4.968,0,0,1-7.193.422,4.889,4.889,0,0,1-1.588-2.6l1.569-.93a4.279,4.279,0,0,0,1.242,2.146,3.24,3.24,0,0,0,4.285-4.845,4.45,4.45,0,0,0-2.354-1.016l.722-1.661a4.955,4.955,0,0,1,2.855,1.292A4.905,4.905,0,0,1,1012.329,402.848Z" opacity="0.33"/>
      <path id="Path_557" data-name="Path 557" d="M1000.683,395.7l1.42,1.8-1.4,1.1-4.053-5.148,1.4-1.1,1.411,1.793,6.3-4.961,1.22,1.55Z" opacity="0.33"/>
      <path id="Path_558" data-name="Path 558" d="M991.536,364.346a2.407,2.407,0,1,1,2.278-2.53A2.372,2.372,0,0,1,991.536,364.346Z" opacity="0.33"/>
    </g>
  </g>
</svg>
