<svg id="prevProject" xmlns="http://www.w3.org/2000/svg" width="113.362" height="118.94" viewBox="0 0 113.362 118.94">
  <g id="Group_172" data-name="Group 172">
    <path id="Path_559" data-name="Path 559" d="M836.392,342.137l1.137-2.468a2.581,2.581,0,0,1,3.587-1.435,2.646,2.646,0,0,1,1.278,3.663l-.424.919,2.89,1.331-.719,1.561Zm4.549-.641a1.175,1.175,0,0,0-.565-1.656,1.154,1.154,0,0,0-1.583.639l-.331.719,2.158.995Z" transform="translate(-834.66 -305.263)" opacity="0.33"/>
    <path id="Path_560" data-name="Path 560" d="M840.256,334.38l1.418-2.146a2.575,2.575,0,0,1,3.712-1.01,2.48,2.48,0,0,1,1.167,2.323l4.239.377-1.049,1.587-3.7-.461-.505.763,2.787,1.844-.948,1.434Zm4.515-.04a1.132,1.132,0,1,0-1.929-1.174l-.4.6,1.883,1.245Z" transform="translate(-834.598 -305.378)" opacity="0.33"/>
    <path id="Path_561" data-name="Path 561" d="M845.583,326.91l2.932-3.27,1.153,1.033-1.782,1.99,1.416,1.27,1.531-1.708,1.135,1.018-1.53,1.707,1.509,1.352,1.855-2.072,1.145,1.026-3,3.352Z" transform="translate(-834.512 -305.494)" opacity="0.33"/>
    <path id="Path_562" data-name="Path 562" d="M858.315,326.243l-7.834-4.634,1.466-1.193,5.808,3.67-2.422-6.429,1.465-1.195,2.964,8.6Z" transform="translate(-834.433 -305.61)" opacity="0.33"/>
    <path id="Path_563" data-name="Path 563" d="M859.237,314.941l1.465-.9,4.461,7.272-1.464.9Z" transform="translate(-834.292 -305.649)" opacity="0.33"/>
    <path id="Path_564" data-name="Path 564" d="M865.132,316.261a4.44,4.44,0,1,1,5.824,2.319A4.3,4.3,0,0,1,865.132,316.261Zm1.647-.706a2.652,2.652,0,1,0,1.323-3.633A2.645,2.645,0,0,0,866.779,315.554Z" transform="translate(-834.203 -305.713)" opacity="0.33"/>
    <path id="Path_565" data-name="Path 565" d="M876.061,313.1l-1.112-5.211,1.682-.358,1.111,5.21a1.72,1.72,0,1,0,3.362-.717l-1.111-5.21,1.681-.359,1.112,5.21a3.439,3.439,0,0,1-6.725,1.435Z" transform="translate(-834.038 -305.771)" opacity="0.33"/>
    <path id="Path_566" data-name="Path 566" d="M890.487,307.527l-1.4.712a1.334,1.334,0,0,0-1.286-.867.828.828,0,0,0-.888.86c.066,1.413,3.762,1.032,3.887,3.677a2.58,2.58,0,0,1-2.73,2.729,2.883,2.883,0,0,1-2.92-1.84l1.417-.775a1.6,1.6,0,0,0,1.525,1.015c.634-.029,1-.377.97-.926-.068-1.462-3.738-1.046-3.866-3.775a2.419,2.419,0,0,1,2.568-2.552A2.688,2.688,0,0,1,890.487,307.527Z" transform="translate(-833.873 -305.782)" opacity="0.33"/>
    <path id="Path_567" data-name="Path 567" d="M898.459,306.373l2.674.481a2.582,2.582,0,0,1,2.291,3.111,2.646,2.646,0,0,1-3.225,2.158l-1-.179-.563,3.133-1.692-.3Zm1.764,4.243a1.174,1.174,0,0,0,1.461-.963,1.154,1.154,0,0,0-1.017-1.373l-.779-.14-.421,2.341Z" transform="translate(-833.683 -305.773)" opacity="0.33"/>
    <path id="Path_568" data-name="Path 568" d="M906.979,308.17l2.434.837a2.575,2.575,0,0,1,1.908,3.34,2.481,2.481,0,0,1-1.957,1.714l.7,4.2-1.8-.62-.481-3.7-.866-.3-1.087,3.16-1.627-.56Zm1.169,4.363a1.132,1.132,0,1,0,.654-2.161l-.681-.235-.735,2.134Z" transform="translate(-833.566 -305.744)" opacity="0.33"/>
    <path id="Path_569" data-name="Path 569" d="M913.3,314.951a4.44,4.44,0,1,1,1.687,6.039A4.3,4.3,0,0,1,913.3,314.951Zm1.561.882a2.652,2.652,0,1,0,3.691-1.151A2.644,2.644,0,0,0,914.863,315.833Z" transform="translate(-833.429 -305.671)" opacity="0.33"/>
    <path id="Path_570" data-name="Path 570" d="M921.091,322.833a4.712,4.712,0,0,0,.509.5.81.81,0,0,0,1.255-.188l3.8-4.786,1.346,1.07-3.988,5.025a2.074,2.074,0,0,1-3.218.248,5.037,5.037,0,0,1-.8-.794Z" transform="translate(-833.311 -305.579)" opacity="0.33"/>
    <path id="Path_571" data-name="Path 571" d="M930.677,321.791l3.081,3.126-1.1,1.087-1.874-1.9-1.355,1.336,1.609,1.632-1.085,1.07-1.61-1.632-1.441,1.421,1.951,1.979-1.093,1.078-3.158-3.2Z" transform="translate(-833.237 -305.524)" opacity="0.33"/>
    <path id="Path_572" data-name="Path 572" d="M932.379,329.718a4.325,4.325,0,0,1,6.193,1.01,4.257,4.257,0,0,1,.855,2.513l-1.51.491a3.733,3.733,0,0,0-.648-2.06,2.821,2.821,0,0,0-4.562,3.3,3.864,3.864,0,0,0,1.806,1.311l-.929,1.274a4.493,4.493,0,0,1-1.2-7.842Z" transform="translate(-833.142 -305.41)" opacity="0.33"/>
    <path id="Path_573" data-name="Path 573" d="M940.868,337.752l-.908-1.779,1.378-.7,2.591,5.08-1.378.7-.9-1.768-6.22,3.171-.78-1.53Z" transform="translate(-833.074 -305.306)" opacity="0.33"/>
    <path id="Path_574" data-name="Path 574" d="M944.184,361.554a2.1,2.1,0,1,1-2.061,2.13A2.065,2.065,0,0,1,944.184,361.554Z" transform="translate(-832.954 -304.882)" opacity="0.33"/>
    <path id="Path_575" data-name="Path 575" d="M943.335,389.579l-1.275,2.4a2.58,2.58,0,0,1-3.661,1.228,2.645,2.645,0,0,1-1.069-3.729l.476-.893L935,387.09l.807-1.517Zm-4.578.382a1.174,1.174,0,0,0,.47,1.685,1.153,1.153,0,0,0,1.617-.548l.371-.7-2.1-1.116Z" transform="translate(-833.069 -304.494)" opacity="0.33"/>
    <path id="Path_576" data-name="Path 576" d="M939.055,397.145l-1.542,2.062a2.575,2.575,0,0,1-3.763.8,2.482,2.482,0,0,1-1.033-2.387L928.506,397l1.139-1.523,3.669.673.548-.734-2.675-2,1.029-1.378Zm-4.512-.218a1.132,1.132,0,1,0,1.858,1.281l.431-.576-1.807-1.35Z" transform="translate(-833.174 -304.39)" opacity="0.33"/>
    <path id="Path_577" data-name="Path 577" d="M933.307,404.283l-3.108,3.1-1.093-1.1L931,404.4l-1.343-1.346-1.623,1.617-1.076-1.079,1.624-1.618-1.429-1.434-1.969,1.962-1.084-1.088,3.187-3.175Z" transform="translate(-833.245 -304.29)" opacity="0.33"/>
    <path id="Path_578" data-name="Path 578" d="M920.541,404.26l7.551,5.07-1.53,1.108-5.585-3.994,2.05,6.553L921.5,414.1l-2.465-8.75Z" transform="translate(-833.326 -304.193)" opacity="0.33"/>
    <path id="Path_579" data-name="Path 579" d="M918.969,415.439l-1.512.816-4.049-7.51,1.513-.815Z" transform="translate(-833.417 -304.134)" opacity="0.33"/>
    <path id="Path_580" data-name="Path 580" d="M913.192,413.808a4.436,4.436,0,1,1-5.679-2.647A4.3,4.3,0,0,1,913.192,413.808Zm-1.685.61a2.65,2.65,0,1,0-1.526,3.549A2.64,2.64,0,0,0,911.507,414.417Z" transform="translate(-833.56 -304.086)" opacity="0.33"/>
    <path id="Path_581" data-name="Path 581" d="M902.052,416.352l.807,5.264-1.7.26-.807-5.264a1.718,1.718,0,1,0-3.4.519l.806,5.266-1.7.26-.806-5.266a3.437,3.437,0,0,1,6.794-1.039Z" transform="translate(-833.711 -304.044)" opacity="0.33"/>
    <path id="Path_582" data-name="Path 582" d="M887.294,421.064l1.436-.622a1.33,1.33,0,0,0,1.227.946.826.826,0,0,0,.94-.8c.023-1.413-3.685-1.268-3.641-3.912a2.577,2.577,0,0,1,2.894-2.548,2.88,2.88,0,0,1,2.8,2.021l-1.462.683a1.6,1.6,0,0,0-1.457-1.11c-.633-.009-1.016.313-1.025.862-.024,1.461,3.66,1.279,3.614,4.009a2.416,2.416,0,0,1-2.72,2.381A2.686,2.686,0,0,1,887.294,421.064Z" transform="translate(-833.839 -304.034)" opacity="0.33"/>
    <path id="Path_583" data-name="Path 583" d="M879.3,421.793l-2.646-.632a2.583,2.583,0,0,1-2.109-3.238,2.648,2.648,0,0,1,3.344-1.972l.985.237.74-3.1,1.673.4Zm-1.521-4.338a1.176,1.176,0,0,0-1.514.879,1.153,1.153,0,0,0,.937,1.428l.771.185.554-2.313Z" transform="translate(-834.046 -304.05)" opacity="0.33"/>
    <path id="Path_584" data-name="Path 584" d="M870.922,419.539l-2.381-.976a2.574,2.574,0,0,1-1.715-3.443,2.482,2.482,0,0,1,2.052-1.6l-.454-4.232,1.76.72.269,3.721.846.348,1.266-3.093,1.591.651ZM870,415.117a1.132,1.132,0,1,0-.775,2.121l.666.273.855-2.089Z" transform="translate(-834.172 -304.112)" opacity="0.33"/>
    <path id="Path_585" data-name="Path 585" d="M865.023,412.391a4.44,4.44,0,1,1-1.344-6.124A4.3,4.3,0,0,1,865.023,412.391Zm-1.509-.968a2.652,2.652,0,1,0-3.75.942A2.643,2.643,0,0,0,863.515,411.423Z" transform="translate(-834.331 -304.173)" opacity="0.33"/>
    <path id="Path_586" data-name="Path 586" d="M857.677,404.047a4.712,4.712,0,0,0-.479-.525.808.808,0,0,0-1.262.117l-4.062,4.559-1.284-1.143,4.266-4.787a2.071,2.071,0,0,1,3.225-.066,4.9,4.9,0,0,1,.756.838Z" transform="translate(-834.431 -304.238)" opacity="0.33"/>
    <path id="Path_587" data-name="Path 587" d="M848.078,404.6l-2.9-3.293,1.161-1.024,1.766,2,1.428-1.259-1.516-1.719,1.143-1.007,1.516,1.719,1.518-1.338-1.838-2.086,1.152-1.016,2.975,3.376Z" transform="translate(-834.518 -304.333)" opacity="0.33"/>
    <path id="Path_588" data-name="Path 588" d="M846.813,396.578a4.327,4.327,0,0,1-6.13-1.355,4.258,4.258,0,0,1-.714-2.557l1.536-.406a3.738,3.738,0,0,0,.533,2.094,2.822,2.822,0,0,0,4.742-3.044,3.88,3.88,0,0,0-1.732-1.411l1-1.22a4.494,4.494,0,0,1,.767,7.9Z" transform="translate(-834.603 -304.444)" opacity="0.33"/>
    <path id="Path_589" data-name="Path 589" d="M838.775,388.025l.806,1.831-1.417.624-2.3-5.225,1.417-.624.8,1.82,6.4-2.816.692,1.574Z" transform="translate(-834.669 -304.526)" opacity="0.33"/>
    <path id="Path_590" data-name="Path 590" d="M836.751,366.313a2.1,2.1,0,1,1,2.13-2.062A2.067,2.067,0,0,1,836.751,366.313Z" transform="translate(-834.688 -304.873)" opacity="0.33"/>
  </g>
</svg>
