<svg xmlns="http://www.w3.org/2000/svg" viewBox="0 0 111.41 119.87"><g id="Layer_2" data-name="Layer 2"><g id="Layer_1-2" data-name="Layer 1"><path d="M5.78,38.1,6.9,35.67a2.54,2.54,0,0,1,3.53-1.41,2.61,2.61,0,0,1,1.26,3.6l-.42.91,2.84,1.31-.71,1.53Zm4.48-.63a1.16,1.16,0,0,0-.56-1.63,1.14,1.14,0,0,0-1.56.63l-.32.71,2.12,1Z" transform="translate(-4.17 -0.29)" opacity="0.33"/><path d="M9.64,30.35,11,28.24a2.52,2.52,0,0,1,3.65-1,2.44,2.44,0,0,1,1.15,2.28L20,29.9l-1,1.56L15.34,31l-.5.75,2.74,1.82L16.65,35Zm4.45,0a1.11,1.11,0,1,0-1.9-1.15l-.39.59L13.65,31Z" transform="translate(-4.17 -0.29)" opacity="0.33"/><path d="M17.76,25.89a4.37,4.37,0,0,1,6.06-6.3,4.37,4.37,0,0,1-6.06,6.3ZM19,24.62a2.61,2.61,0,1,0,3.61-3.75A2.61,2.61,0,1,0,19,24.62Z" transform="translate(-4.17 -0.29)" opacity="0.33"/><path d="M27.32,20.29a5.24,5.24,0,0,0,.6-.37.79.79,0,0,0,.13-1.24l-3.63-4.79,1.34-1,3.82,5A2,2,0,0,1,29,21a5.71,5.71,0,0,1-1,.57Z" transform="translate(-4.17 -0.29)" opacity="0.33"/><path d="M28.74,10.84l3.73-2.17L33.24,10,31,11.31l.95,1.62,1.95-1.13.75,1.3-2,1.13,1,1.72L36,14.58l.75,1.3L33,18.11Z" transform="translate(-4.17 -0.29)" opacity="0.33"/><path d="M37.53,8l-1.82.74-.58-1.41,5.2-2.12.58,1.41-1.81.74,2.61,6.36-1.57.64Z" transform="translate(-4.17 -0.29)" opacity="0.33"/><path d="M47.93,3.08l2.64-.43a2.54,2.54,0,0,1,3.14,2.14,2.61,2.61,0,0,1-2.28,3.06l-1,.16L51,11.1l-1.67.27Zm3,3.36a1.16,1.16,0,0,0,1-1.37,1.14,1.14,0,0,0-1.4-.94l-.77.12.38,2.31Z" transform="translate(-4.17 -0.29)" opacity="0.33"/><path d="M56.49,2l2.53,0A2.53,2.53,0,0,1,61.9,4.37a2.43,2.43,0,0,1-1.23,2.24l2,3.65-1.87,0L59.16,7l-.9,0,.06,3.28-1.69,0ZM59,5.61a1.09,1.09,0,0,0,1.13-1.15c0-.67-.48-1.08-1.25-1.07H58.2l0,2.22Z" transform="translate(-4.17 -0.29)" opacity="0.33"/><path d="M65.67,2.17,70,2.74l-.2,1.51L67.14,3.9l-.25,1.86,2.24.3-.2,1.48-2.24-.3-.26,2,2.71.36-.2,1.5-4.39-.59ZM68.08.29,69.8.52,68.42,2.08l-1.37-.19Z" transform="translate(-4.17 -0.29)" opacity="0.33"/><path d="M71.93,7.35a4.25,4.25,0,0,1,5.43-2.93,4.2,4.2,0,0,1,2.18,1.44l-.88,1.29a3.76,3.76,0,0,0-1.75-1.22,2.62,2.62,0,0,0-3.29,1.92,2.6,2.6,0,0,0,1.72,3.4,3.84,3.84,0,0,0,2.2-.06l0,1.55a4.26,4.26,0,0,1-2.69,0A4.2,4.2,0,0,1,71.93,7.35Z" transform="translate(-4.17 -0.29)" opacity="0.33"/><path d="M82.85,6.58l3.91,1.84L86.11,9.8,83.73,8.68l-.8,1.69,2,1-.64,1.36-2-1-.84,1.8,2.47,1.17-.64,1.36-4-1.88Zm2.86-1.06,1.58.74L85.5,7.33l-1.25-.59Z" transform="translate(-4.17 -0.29)" opacity="0.33"/><path d="M90,10.17l1.85,1.25c2.28,1.54,2.81,3.8,1.33,6s-3.77,2.52-6,1l-1.85-1.25Zm-2,7a2.45,2.45,0,0,0,3.71-.8A2.45,2.45,0,0,0,91,12.68l-.49-.34-3.07,4.52Z" transform="translate(-4.17 -0.29)" opacity="0.33"/><path d="M98.05,16.09,101.21,19l-1,1.11-1.93-1.78L97,19.73l1.65,1.53-1,1.1L96,20.83,94.6,22.29l2,1.86-1,1.1-3.25-3Z" transform="translate(-4.17 -0.29)" opacity="0.33"/><path d="M102.67,24.66l-4.48,3.5-1-1.32,6.63-5.17,1,1.36-2.31,6.36,4.52-3.53,1,1.31-6.62,5.17-1-1.32Z" transform="translate(-4.17 -0.29)" opacity="0.33"/><path d="M109.44,32.42l-.94-1.73,1.34-.73,2.69,4.93-1.34.73-.94-1.71-6,3.28-.81-1.48Z" transform="translate(-4.17 -0.29)" opacity="0.33"/><path d="M113.42,55.7a2.07,2.07,0,1,1-2,2.16A2,2,0,0,1,113.42,55.7Z" transform="translate(-4.17 -0.29)" opacity="0.33"/><path d="M113.47,83.63,112.29,86a2.53,2.53,0,0,1-3.55,1.34,2.6,2.6,0,0,1-1.19-3.63l.44-.9-2.82-1.37.74-1.52Zm-4.5.54a1.16,1.16,0,0,0,.53,1.64,1.13,1.13,0,0,0,1.57-.59l.34-.7-2.1-1Z" transform="translate(-4.17 -0.29)" opacity="0.33"/><path d="M109.42,91.33,108,93.41a2.54,2.54,0,0,1-3.68.91A2.43,2.43,0,0,1,103.21,92L99,91.55,100.11,90l3.63.53.51-.74-2.7-1.87,1-1.39ZM105,91.27a1.11,1.11,0,1,0,1.87,1.19l.4-.58-1.82-1.26Z" transform="translate(-4.17 -0.29)" opacity="0.33"/><path d="M101.21,95.61a4.37,4.37,0,1,1-6.16,0A4.24,4.24,0,0,1,101.21,95.61ZM100,96.86a2.61,2.61,0,1,0,.11,3.8A2.6,2.6,0,0,0,100,96.86Z" transform="translate(-4.17 -0.29)" opacity="0.33"/><path d="M91.56,101a3.11,3.11,0,0,0-.61.35.8.8,0,0,0-.15,1.24l3.53,4.86-1.37,1-3.71-5.11a2,2,0,0,1,.62-3.12,4.9,4.9,0,0,1,1-.55Z" transform="translate(-4.17 -0.29)" opacity="0.33"/><path d="M89.94,110.42l-3.78,2.09-.73-1.33,2.29-1.27-.9-1.64-2,1.09-.72-1.31,2-1.09-1-1.75-2.4,1.33L82,105.21l3.87-2.14Z" transform="translate(-4.17 -0.29)" opacity="0.33"/><path d="M81.1,113.1l1.83-.71.55,1.42-5.24,2-.55-1.42,1.83-.7L77,107.29l1.58-.61Z" transform="translate(-4.17 -0.29)" opacity="0.33"/><path d="M70.57,117.79l-2.65.38a2.54,2.54,0,0,1-3.1-2.21,2.6,2.6,0,0,1,2.35-3l1-.14-.44-3.1,1.68-.24Zm-3-3.42a1.16,1.16,0,0,0-1.07,1.35,1.14,1.14,0,0,0,1.38,1l.77-.11-.33-2.32Z" transform="translate(-4.17 -0.29)" opacity="0.33"/><path d="M61.92,118.75l-2.53,0a2.54,2.54,0,0,1-2.81-2.54,2.46,2.46,0,0,1,1.31-2.2L56,110.25l1.87,0,1.58,3.31h.9l0-3.28,1.7,0ZM59.5,115a1.07,1.07,0,0,0-1.17,1.11c0,.67.44,1.1,1.21,1.11h.71l0-2.22Z" transform="translate(-4.17 -0.29)" opacity="0.33"/><path d="M52.82,118.33l-4.27-.67.24-1.5,2.59.4.29-1.85-2.22-.35.23-1.48,2.23.35.31-2-2.71-.42.24-1.49,4.37.68Zm-2.45,1.83-1.72-.27,1.42-1.53,1.36.22Z" transform="translate(-4.17 -0.29)" opacity="0.33"/><path d="M46.68,113A4.4,4.4,0,0,1,39,114.34l.91-1.27a3.66,3.66,0,0,0,1.72,1.25A2.78,2.78,0,0,0,43.36,109a3.91,3.91,0,0,0-2.2,0v-1.55A4.42,4.42,0,0,1,46.68,113Z" transform="translate(-4.17 -0.29)" opacity="0.33"/><path d="M32.88,114.57l-1.56-.78,1.81-1,1.23.62Zm2.88-1-3.87-1.92.68-1.36,2.35,1.17.84-1.68-2-1,.66-1.35,2,1,.89-1.79-2.45-1.21.67-1.36,4,2Z" transform="translate(-4.17 -0.29)" opacity="0.33"/><path d="M28.71,109.82l-1.83-1.29c-2.24-1.59-2.72-3.85-1.21-6s3.83-2.44,6.06-.86L33.55,103Zm2.13-7a2.45,2.45,0,0,0-3.73.72,2.45,2.45,0,0,0,.58,3.74l.49.35,3.15-4.46Z" transform="translate(-4.17 -0.29)" opacity="0.33"/><path d="M20.74,103.73l-3.1-3,1.06-1.09,1.89,1.83,1.3-1.35-1.62-1.57,1-1.07L22.93,99l1.39-1.44-2-1.9,1-1.08,3.18,3.08Z" transform="translate(-4.17 -0.29)" opacity="0.33"/><path d="M16.31,95.08l4.56-3.41,1,1.34-6.73,5-1-1.38,2.44-6.31L12,93.79l-1-1.34,6.73-5,1,1.35Z" transform="translate(-4.17 -0.29)" opacity="0.33"/><path d="M9.69,87.15l.9,1.75-1.35.7-2.58-5L8,83.91l.9,1.74L15,82.49,15.8,84Z" transform="translate(-4.17 -0.29)" opacity="0.33"/><path d="M6.36,65.65a2.06,2.06,0,1,1,1.93-2.19A2,2,0,0,1,6.36,65.65Z" transform="translate(-4.17 -0.29)" opacity="0.33"/></g></g></svg>