<svg xmlns="http://www.w3.org/2000/svg" viewBox="0 0 113.4 119.71"><g id="Layer_2" data-name="Layer 2"><g id="Layer_1-2" data-name="Layer 1"><path d="M15.48,42.79,17,40.06a3,3,0,0,1,4.23-1.34A3,3,0,0,1,22.38,43l-.57,1L25,45.8l-1,1.73Zm5.27-.35a1.36,1.36,0,0,0-.51-1.95,1.33,1.33,0,0,0-1.87.6l-.44.8,2.39,1.32Z" transform="translate(-12.47 -9.29)" opacity="0.33"/><path d="M20.78,34l1.86-2.3C24,30,25.74,29.93,27,31a2.82,2.82,0,0,1,1.07,2.78l4.81.9-1.38,1.7-4.18-.94-.66.82,3,2.41-1.24,1.53Zm5.16.45a1.3,1.3,0,1,0-2.07-1.56l-.52.65,2,1.63Z" transform="translate(-12.47 -9.29)" opacity="0.33"/><path d="M30.76,29.68a5.09,5.09,0,0,1,7.92-6.41,5.09,5.09,0,0,1-7.92,6.41Zm1.6-1.3a3,3,0,1,0,4.72-3.81,3,3,0,1,0-4.72,3.81Z" transform="translate(-12.47 -9.29)" opacity="0.33"/><path d="M42.63,24.66a4.54,4.54,0,0,0,.75-.32.93.93,0,0,0,.37-1.41L40.4,16.77l1.73-.94,3.52,6.47c.87,1.6.15,2.78-1.18,3.51a5.84,5.84,0,0,1-1.2.49Z" transform="translate(-12.47 -9.29)" opacity="0.33"/><path d="M46.06,14l4.73-1.75.62,1.66L48.53,15,49.29,17l2.47-.92.61,1.64-2.47.92.81,2.18,3-1.11.62,1.65-4.85,1.8Z" transform="translate(-12.47 -9.29)" opacity="0.33"/><path d="M56.88,12.48l-2.26.45-.34-1.74L60.7,9.91l.35,1.74-2.24.45L60.38,20l-1.94.39Z" transform="translate(-12.47 -9.29)" opacity="0.33"/><path d="M75.76,11.62l-1.68.64a1.52,1.52,0,0,0-1.36-1.14A1,1,0,0,0,71.6,12c-.09,1.62,4.17,1.64,4,4.67a3,3,0,0,1-3.45,2.78A3.3,3.3,0,0,1,69,17l1.71-.72a1.84,1.84,0,0,0,1.62,1.35c.73,0,1.18-.31,1.22-.94.1-1.68-4.14-1.65-4-4.78a2.78,2.78,0,0,1,3.24-2.6A3.08,3.08,0,0,1,75.76,11.62Z" transform="translate(-12.47 -9.29)" opacity="0.33"/><path d="M78.64,16.18l1.51-5.93,1.91.49-1.51,5.92a2,2,0,1,0,3.83,1l1.5-5.93,1.92.49-1.51,5.93a3.95,3.95,0,0,1-7.65-1.95Z" transform="translate(-12.47 -9.29)" opacity="0.33"/><path d="M91.87,13.82l1.81.77-3.87,9L88,22.83Z" transform="translate(-12.47 -9.29)" opacity="0.33"/><path d="M94.82,26.22,97,16l1.84,1.15L97,24.82l6.09-5L104.89,21l-8.25,6.4Z" transform="translate(-12.47 -9.29)" opacity="0.33"/><path d="M103.86,29.67l-2.35,1.26-1.45-1.35,9.23-4.8,1.51,1.42-4.15,9.53-1.45-1.36L106.29,32ZM108.6,27l-3.24,1.8L107,30.4Z" transform="translate(-12.47 -9.29)" opacity="0.33"/><path d="M114.45,35,109,38.83l-1.11-1.59,8-5.61,1.15,1.64L114,40.53l5.48-3.84,1.11,1.6-8,5.61-1.12-1.61Z" transform="translate(-12.47 -9.29)" opacity="0.33"/><path d="M121.84,44.69l-.94-2.1,1.63-.72,2.66,6-1.62.72-.93-2.09-7.33,3.26-.8-1.8Z" transform="translate(-12.47 -9.29)" opacity="0.33"/><path d="M123.6,70.1a2.41,2.41,0,1,1-2.55,2.26A2.37,2.37,0,0,1,123.6,70.1Z" transform="translate(-12.47 -9.29)" opacity="0.33"/><path d="M122.54,96.39,121,99.1a3,3,0,0,1-4.25,1.28,3,3,0,0,1-1.09-4.32l.58-1-3.17-1.82,1-1.71Zm-5.27.28a1.37,1.37,0,1,0,2.36,1.38l.45-.79-2.37-1.36Z" transform="translate(-12.47 -9.29)" opacity="0.33"/><path d="M117.1,105.13l-1.89,2.27c-1.38,1.64-3.13,1.71-4.37.68a2.85,2.85,0,0,1-1-2.8l-4.79-1,1.4-1.67,4.16,1,.68-.81-3-2.46,1.27-1.51Zm-5.16-.53a1.3,1.3,0,1,0,2,1.59l.53-.64-2-1.66Z" transform="translate(-12.47 -9.29)" opacity="0.33"/><path d="M107.06,109.28a5.09,5.09,0,1,1-7.15-.86A4.94,4.94,0,0,1,107.06,109.28Zm-1.62,1.26A3,3,0,1,0,105,115,3,3,0,0,0,105.44,110.54Z" transform="translate(-12.47 -9.29)" opacity="0.33"/><path d="M95.12,114.1a5.21,5.21,0,0,0-.76.31.93.93,0,0,0-.39,1.4L97.22,122l-1.75.92-3.41-6.53c-.84-1.61-.1-2.79,1.24-3.49a6.26,6.26,0,0,1,1.2-.47Z" transform="translate(-12.47 -9.29)" opacity="0.33"/><path d="M91.51,124.73l-4.75,1.68-.6-1.68,2.89-1-.72-2.06-2.49.88-.58-1.65,2.48-.88L87,117.81l-3,1.07-.59-1.67,4.87-1.72Z" transform="translate(-12.47 -9.29)" opacity="0.33"/><path d="M80.67,126.06l2.26-.41.32,1.75-6.44,1.18-.32-1.75,2.24-.41-1.44-7.89,1.94-.36Z" transform="translate(-12.47 -9.29)" opacity="0.33"/><path d="M61.79,126.63l1.69-.62a1.54,1.54,0,0,0,1.35,1.17,1,1,0,0,0,1.13-.86c.12-1.62-4.14-1.7-3.92-4.73a3,3,0,0,1,3.5-2.73,3.29,3.29,0,0,1,3.06,2.51l-1.72.68a1.82,1.82,0,0,0-1.59-1.37c-.73-.05-1.19.29-1.24.92-.12,1.68,4.11,1.72,3.88,4.84A2.78,2.78,0,0,1,64.65,129,3.1,3.1,0,0,1,61.79,126.63Z" transform="translate(-12.47 -9.29)" opacity="0.33"/><path d="M59,122l-1.6,5.91-1.91-.52,1.6-5.9a2,2,0,1,0-3.81-1l-1.6,5.91-1.9-.52,1.6-5.9a3.61,3.61,0,0,1,4.82-2.7A3.61,3.61,0,0,1,59,122Z" transform="translate(-12.47 -9.29)" opacity="0.33"/><path d="M45.7,124.17l-1.81-.81,4-8.94,1.8.81Z" transform="translate(-12.47 -9.29)" opacity="0.33"/><path d="M42.93,111.72l-2.29,10.2-1.82-1.18,2-7.64L34.61,118l-1.82-1.18,8.34-6.27Z" transform="translate(-12.47 -9.29)" opacity="0.33"/><path d="M34,108.13l2.36-1.22,1.43,1.38-9.3,4.65L27,111.5l4.3-9.46,1.43,1.38-1.13,2.4Zm-4.79,2.57L32.44,109l-1.65-1.59Z" transform="translate(-12.47 -9.29)" opacity="0.33"/><path d="M23.45,102.61l5.49-3.72L30,100.51,21.91,106l-1.12-1.66L24,97.12l-5.55,3.74-1.09-1.61,8.12-5.48,1.1,1.62Z" transform="translate(-12.47 -9.29)" opacity="0.33"/><path d="M16.22,92.85l.9,2.12-1.63.69-2.57-6,1.64-.69.89,2.1,7.38-3.15.78,1.82Z" transform="translate(-12.47 -9.29)" opacity="0.33"/><path d="M14.86,71a2.41,2.41,0,1,1,2.43-2.39A2.39,2.39,0,0,1,14.86,71Z" transform="translate(-12.47 -9.29)" opacity="0.33"/></g></g></svg>