<svg xmlns="http://www.w3.org/2000/svg" viewBox="0 0 130 130"><g id="Layer_2" data-name="Layer 2"><g id="Layer_1-2" data-name="Layer 1"><circle cx="65" cy="65" r="65"/><path d="M32.09,55.2,33.41,53A2.53,2.53,0,0,1,37,51.92a2.46,2.46,0,0,1,1.23,2.24l4.17.22-1,1.6-3.65-.32-.47.76,2.8,1.71-.88,1.45Zm4.43-.2a1.11,1.11,0,1,0-1.93-1.08l-.37.6,1.89,1.16Z" transform="translate(-18.34 -18.34)" fill="#fff"/><path d="M37.1,47.59l2.76-3.32,1.17,1-1.68,2,1.44,1.2,1.44-1.74,1.16,1L42,49.42l1.53,1.27,1.74-2.11,1.17,1L43.56,53Z" transform="translate(-18.34 -18.34)" fill="#fff"/><path d="M44.77,45a4.36,4.36,0,0,1,6.62-5.67,4.4,4.4,0,0,1,1.06,2.41l1.09,0,0,1.54-1.17,0a4.4,4.4,0,0,1-1.42,2.21A4.21,4.21,0,0,1,44.77,45Zm1.33-1.15a2.6,2.6,0,0,0,3.78.42,2.56,2.56,0,0,0,.75-1.06l-1.05,0,0-1.52,1.1,0a3.15,3.15,0,0,0-.65-1.22,2.61,2.61,0,1,0-4,3.38Z" transform="translate(-18.34 -18.34)" fill="#fff"/><path d="M54.28,38.69l-2.57-4.57,1.48-.83,2.56,4.57a1.69,1.69,0,1,0,3-1.66l-2.57-4.56,1.48-.83,2.56,4.57a3.38,3.38,0,0,1-5.89,3.31Z" transform="translate(-18.34 -18.34)" fill="#fff"/><path d="M61.07,29.31l4.05-1.49.53,1.42-2.46.92.64,1.75L66,31.13l.52,1.4-2.12.78L65,35.18l2.57-1,.52,1.42L64,37.18Z" transform="translate(-18.34 -18.34)" fill="#fff"/><path d="M73.71,27.4l-1.24.92a1.3,1.3,0,0,0-1.39-.63.82.82,0,0,0-.72,1c.3,1.36,3.82.38,4.38,2.92a2.54,2.54,0,0,1-2.2,3.09,2.82,2.82,0,0,1-3.13-1.3l1.24-1a1.58,1.58,0,0,0,1.65.73.86.86,0,0,0,.79-1.06c-.31-1.4-3.8-.39-4.37-3a2.37,2.37,0,0,1,2.06-2.89A2.65,2.65,0,0,1,73.71,27.4Z" transform="translate(-18.34 -18.34)" fill="#fff"/><path d="M78.24,26.7l-2,.15-.12-1.52,5.6-.42.11,1.52-2,.15.51,6.85-1.68.12Z" transform="translate(-18.34 -18.34)" fill="#fff"/><path d="M90.4,31.65l-1.07,2-1.68-.28,4.3-7.8,1.76.29,1.56,8.77-1.68-.27-.37-2.25Zm2.13-4.13-1.45,2.82,1.93.32Z" transform="translate(-18.34 -18.34)" fill="#fff"/><path d="M102.15,32.35a4.36,4.36,0,0,1,7.9,3.68,4.42,4.42,0,0,1-1.75,2l.43,1-1.42.59-.45-1.08a4.47,4.47,0,0,1-2.6-.38A4.21,4.21,0,0,1,102.15,32.35Zm1.59.74a2.6,2.6,0,0,0,1.19,3.61,2.52,2.52,0,0,0,1.27.25l-.4-1,1.39-.61.42,1a3.15,3.15,0,0,0,.85-1.1,2.61,2.61,0,1,0-4.72-2.2Z" transform="translate(-18.34 -18.34)" fill="#fff"/><path d="M111.79,38.37l3.08-4.24,1.36,1-3.07,4.24a1.69,1.69,0,1,0,2.74,2L119,37.1l1.37,1-3.08,4.24a3.38,3.38,0,0,1-5.47-4Z" transform="translate(-18.34 -18.34)" fill="#fff"/><path d="M120,43.25a4.36,4.36,0,1,1-.21,6.16A4.23,4.23,0,0,1,120,43.25Zm1.2,1.29a2.61,2.61,0,1,0,3.8,0A2.6,2.6,0,0,0,121.2,44.54Z" transform="translate(-18.34 -18.34)" fill="#fff"/><path d="M130.31,51.36l-1.08-1.65,1.27-.83,3.08,4.69-1.27.84-1.07-1.64-5.75,3.78-.92-1.42Z" transform="translate(-18.34 -18.34)" fill="#fff"/><path d="M135.06,56.31l1.86,3.9-1.38.65-1.12-2.37-1.69.81,1,2-1.36.64-1-2-1.8.85,1.17,2.47-1.36.65-1.9-4Z" transform="translate(-18.34 -18.34)" fill="#fff"/><path d="M137,85.67a2.06,2.06,0,1,1-2.22,1.88A2,2,0,0,1,137,85.67Z" transform="translate(-18.34 -18.34)" fill="#fff"/><path d="M135.76,109l-1.22,2.22a2.53,2.53,0,0,1-3.55,1.29,2.44,2.44,0,0,1-1.33-2.19l-4.19,0,.9-1.63,3.67.15.43-.79-2.88-1.58.82-1.48Zm-4.42.4a1.11,1.11,0,1,0,2,1l.34-.62-1.94-1.07Z" transform="translate(-18.34 -18.34)" fill="#fff"/><path d="M131.09,116.82l-2.6,3.45-1.21-.92,1.58-2.1-1.49-1.12-1.36,1.8-1.19-.91,1.35-1.79-1.59-1.2-1.64,2.18-1.21-.91,2.67-3.53Z" transform="translate(-18.34 -18.34)" fill="#fff"/><path d="M123.55,119.8a4.36,4.36,0,0,1-6.36,6,4.47,4.47,0,0,1-1.17-2.36l-1.09,0,0-1.53,1.17,0a4.51,4.51,0,0,1,1.32-2.27A4.22,4.22,0,0,1,123.55,119.8Zm-1.29,1.2a2.61,2.61,0,0,0-4.49.85l1,0,.05,1.52-1.11,0a3.07,3.07,0,0,0,.71,1.19,2.61,2.61,0,1,0,3.79-3.56Z" transform="translate(-18.34 -18.34)" fill="#fff"/><path d="M114.38,126.52l2.78,4.44-1.43.9-2.79-4.44a1.69,1.69,0,1,0-2.86,1.79l2.78,4.44-1.43.9-2.78-4.44a3.38,3.38,0,0,1,5.73-3.59Z" transform="translate(-18.34 -18.34)" fill="#fff"/><path d="M108,136.19l-4,1.69-.59-1.4,2.41-1-.72-1.72-2.08.88-.58-1.38,2.07-.88-.78-1.83-2.51,1.07-.59-1.39,4.07-1.73Z" transform="translate(-18.34 -18.34)" fill="#fff"/><path d="M95.5,138.7l1.19-1a1.32,1.32,0,0,0,1.42.56.81.81,0,0,0,.67-1c-.36-1.35-3.83-.2-4.5-2.71a2.53,2.53,0,0,1,2-3.2,2.83,2.83,0,0,1,3.19,1.15l-1.19,1a1.58,1.58,0,0,0-1.68-.66c-.6.16-.88.57-.74,1.09.38,1.39,3.81.22,4.51,2.81a2.38,2.38,0,0,1-1.93,3A2.65,2.65,0,0,1,95.5,138.7Z" transform="translate(-18.34 -18.34)" fill="#fff"/><path d="M91,139.62l2-.24.19,1.51-5.58.68-.18-1.51,1.94-.23L88.47,133l1.68-.2Z" transform="translate(-18.34 -18.34)" fill="#fff"/><path d="M78.61,135.24l1-2.06,1.69.2-3.93,8-1.76-.21-2-8.68,1.7.2.47,2.23Zm-1.93,4.23L78,136.58l-1.94-.23Z" transform="translate(-18.34 -18.34)" fill="#fff"/><path d="M66.85,135.1a4.37,4.37,0,0,1-8.08-3.31,4.47,4.47,0,0,1,1.67-2l-.48-1,1.39-.66.5,1.06a4.42,4.42,0,0,1,2.61.26A4.21,4.21,0,0,1,66.85,135.1Zm-1.63-.67a2.6,2.6,0,0,0-1.36-3.55,2.51,2.51,0,0,0-1.28-.19l.45.95-1.36.67-.47-1a3.12,3.12,0,0,0-.8,1.14,2.61,2.61,0,1,0,4.82,2Z" transform="translate(-18.34 -18.34)" fill="#fff"/><path d="M57,129.51l-2.82,4.43L52.75,133l2.81-4.42a1.69,1.69,0,1,0-2.85-1.82l-2.82,4.42-1.42-.9,2.81-4.43A3.38,3.38,0,0,1,57,129.51Z" transform="translate(-18.34 -18.34)" fill="#fff"/><path d="M48.49,125a4.36,4.36,0,1,1-.07-6.16A4.23,4.23,0,0,1,48.49,125Zm-1.26-1.24a2.6,2.6,0,1,0-3.79.16A2.59,2.59,0,0,0,47.23,123.79Z" transform="translate(-18.34 -18.34)" fill="#fff"/><path d="M37.84,117.45,39,119l-1.23.89-3.3-4.54,1.23-.89,1.15,1.58,5.56-4,1,1.37Z" transform="translate(-18.34 -18.34)" fill="#fff"/><path d="M32.83,112.7l-2-3.81,1.34-.72,1.24,2.32L35,109.6l-1.06-2,1.32-.71,1.06,2L38.1,108l-1.29-2.41,1.34-.72,2.08,3.91Z" transform="translate(-18.34 -18.34)" fill="#fff"/><path d="M29.77,87.78a2.06,2.06,0,1,1,2-2.15A2,2,0,0,1,29.77,87.78Z" transform="translate(-18.34 -18.34)" fill="#fff"/></g></g></svg>