<svg xmlns="http://www.w3.org/2000/svg" width="113.455" height="119.62" viewBox="0 0 113.455 119.62"><g transform="translate(-1238.402 -287.345)"><path d="M1254.35,318.242l-10.019-2.956,1.3-1.74,7.494,2.455-4.5-6.476,1.3-1.741,5.713,8.74Z"/><path d="M1252.447,305.3l1.407-1.385,6.878,6.985-1.406,1.386Z"/><path d="M1257,301.069l4.01-3.053,1.078,1.414-2.44,1.858,1.325,1.737,2.093-1.594,1.061,1.392-2.094,1.6,1.408,1.85,2.539-1.935,1.069,1.4-4.11,3.131Z"/><path d="M1271.51,295.58l1.136,6.916-2.024.927-6.473-7.812,1.96-.9,4.594,5.964-1.285-7.479,1.654-.758,4.824,5.858-1.5-7.379,1.946-.892,1.7,10-2.035.933Z"/><path d="M1285.963,288.048l3.1-.326a2.962,2.962,0,0,1,3.521,2.7,3.037,3.037,0,0,1-2.863,3.411l-1.156.121.382,3.633-1.961.206Zm3.3,4.112a1.348,1.348,0,0,0,1.3-1.529,1.324,1.324,0,0,0-1.56-1.187l-.9.1.285,2.714Z"/><path d="M1296.232,287.345l2.946.21c2.136.151,3.217,1.533,3.1,3.138a2.849,2.849,0,0,1-1.664,2.478l2.014,4.451-2.18-.154-1.627-3.961-1.047-.074-.271,3.825-1.969-.14Zm2.584,4.492a1.262,1.262,0,0,0,1.434-1.218c.057-.781-.453-1.308-1.348-1.372l-.822-.059-.184,2.583Z"/><path d="M1305.471,293.046a5.1,5.1,0,1,1,3.492,6.3A4.942,4.942,0,0,1,1305.471,293.046Zm1.978.569a3.045,3.045,0,1,0,3.817-2.267A3.036,3.036,0,0,0,1307.449,293.615Z"/><path d="M1316.4,299.919a5.233,5.233,0,0,0,.687.438.928.928,0,0,0,1.365-.505l3.141-6.269,1.766.885-3.3,6.581c-.817,1.627-2.205,1.713-3.557,1.035a5.643,5.643,0,0,1-1.088-.7Z"/><path d="M1327.117,296.637l4.141,2.867-1.012,1.461-2.519-1.744-1.243,1.795,2.164,1.5-1,1.438-2.164-1.5-1.322,1.909,2.623,1.817-1,1.449-4.246-2.939Z"/><path d="M1330.855,305.347a4.966,4.966,0,0,1,7.2-.02,4.891,4.891,0,0,1,1.439,2.685l-1.617.84a4.291,4.291,0,0,0-1.121-2.211,3.238,3.238,0,0,0-4.547,4.6,4.454,4.454,0,0,0,2.291,1.146l-.813,1.617a5.158,5.158,0,0,1-2.836-8.653Z"/><path d="M1342.1,313.153l-1.317-1.879,1.457-1.019,3.756,5.363-1.455,1.02-1.309-1.868-6.566,4.6-1.133-1.615Z"/><path d="M1348.641,325.036l-1.377-1.158a1.529,1.529,0,0,0,.343-1.748.949.949,0,0,0-1.3-.556c-1.467.7.586,4.44-2.157,5.751a2.962,2.962,0,0,1-4.1-1.67,3.308,3.308,0,0,1,.647-3.91l1.451,1.153a1.831,1.831,0,0,0-.393,2.067,1,1,0,0,0,1.41.614c1.516-.725-.56-4.42,2.27-5.773a2.778,2.778,0,0,1,3.844,1.577A3.09,3.09,0,0,1,1348.641,325.036Z"/><path d="M1349.41,343.908a2.407,2.407,0,1,1-2.367,2.446A2.372,2.372,0,0,1,1349.41,343.908Z"/><path d="M1338.871,371.459l10.277,1.817-1.091,1.873-7.715-1.6,5.191,5.928-1.094,1.873-6.646-8.04Z"/><path d="M1342.164,384.147l-1.244,1.533-7.606-6.185,1.247-1.532Z"/><path d="M1338.133,388.824l-3.647,3.478-1.226-1.287,2.219-2.116-1.508-1.581-1.9,1.817-1.207-1.267,1.905-1.816-1.6-1.682-2.308,2.2-1.219-1.276,3.74-3.565Z"/><path d="M1324.3,395.907l-1.893-6.751,1.91-1.145,7.3,7.052-1.849,1.109-5.227-5.421,2.1,7.294-1.561.935-5.443-5.291,2.308,7.171-1.838,1.1-2.8-9.753,1.922-1.152Z"/><path d="M1310.811,405l-3.049.67a2.964,2.964,0,0,1-3.8-2.289,3.037,3.037,0,0,1,2.467-3.71l1.135-.249-.786-3.569,1.928-.423Zm-3.743-3.721a1.351,1.351,0,0,0-1.125,1.666,1.324,1.324,0,0,0,1.684,1.006l.889-.2-.586-2.666Z"/><path d="M1300.67,406.846l-2.953.115c-2.141.084-3.367-1.171-3.43-2.78a2.846,2.846,0,0,1,1.381-2.647l-2.492-4.2,2.183-.086,2.053,3.759,1.051-.041-.15-3.834,1.972-.077Zm-3.066-4.183a1.3,1.3,0,1,0,.2,2.585l.824-.032-.1-2.589Z"/><path d="M1290.854,402.187a5.093,5.093,0,1,1-4.168-5.863A4.937,4.937,0,0,1,1290.854,402.187Zm-2.028-.346a3.042,3.042,0,1,0-3.536,2.677A3.032,3.032,0,0,0,1288.826,401.841Z"/><path d="M1279.252,396.592a5.183,5.183,0,0,0-.732-.359.927.927,0,0,0-1.3.657l-2.416,6.582-1.853-.68,2.536-6.911c.627-1.708,2-1.95,3.417-1.429a5.662,5.662,0,0,1,1.16.574Z"/><path d="M1268.943,401.051l-4.438-2.39.843-1.565,2.7,1.454,1.035-1.924-2.317-1.248.83-1.541,2.317,1.248,1.1-2.047-2.812-1.513.837-1.553,4.55,2.449Z"/><path d="M1264.229,392.785a4.967,4.967,0,0,1-7.161.808,4.89,4.89,0,0,1-1.726-2.511l1.517-1.013a4.287,4.287,0,0,0,1.357,2.076,3.24,3.24,0,0,0,4.018-5.069,4.455,4.455,0,0,0-2.405-.888l.631-1.7a4.954,4.954,0,0,1,2.922,1.137A4.9,4.9,0,0,1,1264.229,392.785Z"/><path d="M1252.211,386.284l1.517,1.724-1.335,1.175-4.329-4.921,1.336-1.174,1.507,1.714,6.025-5.3,1.3,1.482Z"/><path d="M1244.4,375.215l1.5,1a1.528,1.528,0,0,0-.145,1.774.949.949,0,0,0,1.358.406c1.378-.861-1.079-4.343,1.5-5.953a2.959,2.959,0,0,1,4.264,1.2,3.3,3.3,0,0,1-.2,3.955l-1.57-.983a1.829,1.829,0,0,0,.159-2.1,1,1,0,0,0-1.47-.451c-1.426.889,1.052,4.327-1.607,5.988a2.778,2.778,0,0,1-3.995-1.137A3.088,3.088,0,0,1,1244.4,375.215Z"/><path d="M1240.893,351.5a2.408,2.408,0,1,1,2.326-2.488A2.373,2.373,0,0,1,1240.893,351.5Z"/></g></svg>