<svg xmlns="http://www.w3.org/2000/svg" viewBox="0 0 113.44 119.72"><g id="Layer_2" data-name="Layer 2"><g id="Layer_1-2" data-name="Layer 1"><path d="M21.13,32.91l-10-3,1.29-1.74,7.5,2.45-4.5-6.47,1.29-1.74,5.72,8.74Z" transform="translate(-5.15 -2)"/><path d="M22.28,23.53a4.94,4.94,0,0,1,.56-7.18,4.94,4.94,0,0,1,7.17.53,4.92,4.92,0,0,1-.55,7.18A4.93,4.93,0,0,1,22.28,23.53Zm1.56-1.35a3,3,0,1,0,4.61-4,3,3,0,1,0-4.61,4Z" transform="translate(-5.15 -2)"/><path d="M30.26,11.11l1.69-1L37,18.49l-1.69,1Z" transform="translate(-5.15 -2)"/><path d="M35.75,8l2.72-1.15c2-.84,3.56-.1,4.18,1.39a2.84,2.84,0,0,1-.35,3l3.81,3.05-2,.85-3.25-2.79-1,.41,1.5,3.53L39.56,17Zm4.34,2.83A1.3,1.3,0,1,0,39,8.48l-.76.32,1,2.39Z" transform="translate(-5.15 -2)"/><path d="M51.42,2.93l3.09-.4a3,3,0,0,1,3.58,2.62A3,3,0,0,1,55.3,8.63l-1.15.14.46,3.63-2,.25Zm3.39,4a1.35,1.35,0,0,0,1.27-1.56,1.32,1.32,0,0,0-1.59-1.15l-.9.11.34,2.71Z" transform="translate(-5.15 -2)"/><path d="M61.64,2l3,.14c2.14.11,3.25,1.46,3.18,3.07a2.83,2.83,0,0,1-1.61,2.51l2.11,4.41L66.09,12,64.38,8.1l-1,0-.19,3.83-2-.09Zm2.69,4.43a1.27,1.27,0,0,0,1.41-1.25,1.27,1.27,0,0,0-1.38-1.34l-.83,0-.12,2.59Z" transform="translate(-5.15 -2)"/><path d="M71,7.49a4.94,4.94,0,0,1,6.22-3.61,5,5,0,0,1,3.64,6.21A5.1,5.1,0,0,1,71,7.49ZM73,8a3,3,0,1,0,5.88,1.55A3,3,0,1,0,73,8Z" transform="translate(-5.15 -2)"/><path d="M82.09,14.11a5.14,5.14,0,0,0,.7.42A.92.92,0,0,0,84.14,14l3-6.34,1.78.84-3.14,6.66c-.78,1.65-2.17,1.77-3.53,1.12a5.33,5.33,0,0,1-1.11-.67Z" transform="translate(-5.15 -2)"/><path d="M92.7,10.57l4.21,2.76-1,1.49-2.55-1.69L92.17,15l2.2,1.44-1,1.47-2.2-1.45-1.27,1.94,2.66,1.75-1,1.48-4.31-2.84Z" transform="translate(-5.15 -2)"/><path d="M100.32,18.39l-1.69-1.54,1.2-1.32L104.66,20l-1.2,1.32-1.68-1.54-5.41,5.92-1.46-1.34Z" transform="translate(-5.15 -2)"/><path d="M109.28,28.57l-1.59-.83a1.53,1.53,0,0,0,0-1.78.94.94,0,0,0-1.39-.26c-1.28,1,1.54,4.2-.85,6.08a3,3,0,0,1-4.37-.73,3.3,3.3,0,0,1-.22-4l1.66.81a1.84,1.84,0,0,0,.07,2.1,1,1,0,0,0,1.51.29c1.32-1-1.51-4.18,1-6.12a2.78,2.78,0,0,1,4.1.7A3.08,3.08,0,0,1,109.28,28.57Z" transform="translate(-5.15 -2)"/><path d="M116.29,61.79a2.41,2.41,0,1,1-2.51,2.3A2.37,2.37,0,0,1,116.29,61.79Z" transform="translate(-5.15 -2)"/><path d="M101.46,92.48l9.88,3.35L110,97.52l-7.39-2.76,4.24,6.65-1.37,1.69-5.35-9Z" transform="translate(-5.15 -2)"/><path d="M99.92,101.81a5.1,5.1,0,1,1-7.15-.83A4.93,4.93,0,0,1,99.92,101.81Zm-1.62,1.27a3,3,0,1,0-.38,4.42A3,3,0,0,0,98.3,103.08Z" transform="translate(-5.15 -2)"/><path d="M91.43,113.9l-1.74.94-4.7-8.6,1.74-.94Z" transform="translate(-5.15 -2)"/><path d="M85.84,116.78l-2.77,1c-2,.75-3.56-.06-4.12-1.57a2.82,2.82,0,0,1,.48-2.94l-3.69-3.21,2.05-.77,3.13,2.93,1-.37-1.35-3.59,1.85-.7Zm-4.22-3a1.3,1.3,0,1,0,1,2.39l.77-.29-.91-2.42Z" transform="translate(-5.15 -2)"/><path d="M70,121.2l-3.11.28a3,3,0,0,1-3.48-2.76,3,3,0,0,1,2.93-3.37l1.15-.1-.31-3.64,2-.17ZM66.76,117a1.36,1.36,0,0,0-1.33,1.51A1.32,1.32,0,0,0,67,119.75l.91-.08L67.64,117Z" transform="translate(-5.15 -2)"/><path d="M59.74,121.72l-2.94-.25c-2.13-.19-3.19-1.59-3-3.19a2.84,2.84,0,0,1,1.7-2.45l-1.94-4.49,2.18.19,1.56,4,1,.09.33-3.82,2,.17Zm-2.51-4.53a1.26,1.26,0,0,0-1.45,1.19c-.07.79.43,1.32,1.32,1.4l.83.07.22-2.58Z" transform="translate(-5.15 -2)"/><path d="M50.58,115.86a5.1,5.1,0,1,1-3.37-6.36A4.94,4.94,0,0,1,50.58,115.86Zm-2-.61a3,3,0,1,0-3.86,2.2A3,3,0,0,0,48.62,115.25Z" transform="translate(-5.15 -2)"/><path d="M39.8,108.8a4.07,4.07,0,0,0-.68-.45.92.92,0,0,0-1.37.48L34.5,115l-1.75-.91,3.41-6.53c.84-1.61,2.23-1.67,3.57-1a5.77,5.77,0,0,1,1.08.72Z" transform="translate(-5.15 -2)"/><path d="M29,111.9,24.93,109l1-1.45,2.49,1.79,1.27-1.77L27.6,106l1-1.42,2.13,1.54,1.36-1.89-2.59-1.86,1-1.43,4.2,3Z" transform="translate(-5.15 -2)"/><path d="M21.74,103.77l1.63,1.61-1.25,1.26L17.47,102l1.25-1.26,1.62,1.61L26,96.68l1.4,1.39Z" transform="translate(-5.15 -2)"/><path d="M13.19,93.23l1.56.9a1.53,1.53,0,0,0,0,1.78,1,1,0,0,0,1.38.31c1.32-1-1.37-4.26,1.1-6a3,3,0,0,1,4.33.91,3.29,3.29,0,0,1,.06,4L20,94.18a1.83,1.83,0,0,0,0-2.1,1,1,0,0,0-1.5-.36c-1.36,1,1.34,4.25-1.2,6.09a2.79,2.79,0,0,1-4.07-.87A3.1,3.1,0,0,1,13.19,93.23Z" transform="translate(-5.15 -2)"/><path d="M7.6,64.84A2.41,2.41,0,1,1,10,62.4,2.38,2.38,0,0,1,7.6,64.84Z" transform="translate(-5.15 -2)"/></g></g></svg>